<svg width="66" height="80" viewBox="0 0 66 80" fill="none" xmlns="http://www.w3.org/2000/svg">
<path fill-rule="evenodd" clip-rule="evenodd" d="M65.0509 16.2627C65.0509 20.6497 61.5768 24.631 55.9291 27.5563C61.5768 30.4816 65.0509 34.4629 65.0509 38.8499C65.0509 43.7071 60.7921 48.067 54.0396 51.0469C60.7921 54.0268 65.0509 58.3867 65.0509 63.244C65.0509 72.2256 50.4888 79.5067 32.5255 79.5067C14.5621 79.5067 0 72.2256 0 63.244C0 58.3867 4.25884 54.0268 11.0113 51.0469C4.25884 48.067 0 43.7071 0 38.8499C0 34.4629 3.47414 30.4816 9.12184 27.5563C3.47414 24.631 0 20.6497 0 16.2627C0 7.28107 14.5621 0 32.5255 0C50.4888 0 65.0509 7.28107 65.0509 16.2627Z" fill="#FF4848"/>
<path d="M37.7764 11.6792C38.9115 11.6792 39.8318 12.7835 39.8318 14.1457C39.8318 15.5079 38.9115 16.6122 37.7764 16.6122C36.6412 16.6122 35.7209 15.5079 35.7209 14.1457C35.7209 12.7835 36.6412 11.6792 37.7764 11.6792Z" fill="black"/>
<path d="M28.3215 11.6792C29.4566 11.6792 30.3769 12.7835 30.3769 14.1457C30.3769 15.5079 29.4566 16.6122 28.3215 16.6122C27.1863 16.6122 26.2661 15.5079 26.2661 14.1457C26.2661 12.7835 27.1863 11.6792 28.3215 11.6792Z" fill="black"/>
<path fill-rule="evenodd" clip-rule="evenodd" d="M26.138 10.4918C26.0955 10.1539 26.335 9.84557 26.6729 9.80312C26.8864 9.7763 27.0751 9.84714 27.1676 9.88555C27.2837 9.93371 27.4011 9.99867 27.5093 10.0649C27.7274 10.1983 27.9703 10.3754 28.1957 10.5486C28.4237 10.7237 28.6478 10.9058 28.8288 11.0534L28.8416 11.0638C29.028 11.2157 29.1442 11.3104 29.1936 11.3455C29.2996 11.4207 29.4249 11.4964 29.5751 11.5872C29.657 11.6367 29.7463 11.6907 29.844 11.7515C30.078 11.8972 30.387 12.0986 30.5888 12.332C30.8115 12.5896 30.7833 12.979 30.5257 13.2018C30.2681 13.4245 29.8787 13.3963 29.6559 13.1386C29.5939 13.0669 29.4433 12.9548 29.192 12.7983C29.1308 12.7602 29.0616 12.7183 28.9893 12.6745C28.8153 12.5692 28.623 12.4528 28.48 12.3513C28.3948 12.2909 28.2499 12.1727 28.0988 12.0494C28.0825 12.036 28.066 12.0226 28.0496 12.0093C27.8686 11.8617 27.6568 11.6897 27.4444 11.5265C27.2294 11.3613 27.0274 11.2158 26.8657 11.1169C26.7939 11.073 26.7418 11.0455 26.7079 11.0303C26.4193 11.0109 26.1754 10.7896 26.138 10.4918ZM26.6744 11.0173C26.6743 11.017 26.6778 11.0179 26.6853 11.0208C26.6783 11.0189 26.6746 11.0175 26.6744 11.0173Z" fill="black"/>
<path fill-rule="evenodd" clip-rule="evenodd" d="M40.0207 10.4874C40.1675 10.7947 40.0375 11.1628 39.7302 11.3096C39.4151 11.4602 39.011 11.5912 38.6185 11.7142C38.5534 11.7347 38.4881 11.755 38.4227 11.7754C38.0771 11.8831 37.7283 11.9917 37.3907 12.116C36.9886 12.2639 36.6367 12.4221 36.3642 12.6008C36.0893 12.781 35.9428 12.9511 35.879 13.1041C35.7479 13.4184 35.3868 13.5669 35.0725 13.4359C34.7582 13.3048 34.6097 12.9437 34.7407 12.6294C34.9358 12.1616 35.3035 11.8215 35.688 11.5694C36.0749 11.3158 36.5274 11.1196 36.9648 10.9586C37.3345 10.8226 37.7178 10.7032 38.0629 10.5957C38.1266 10.5759 38.1889 10.5565 38.2496 10.5375C38.6561 10.41 38.9756 10.3034 39.1984 10.1969C39.5057 10.0501 39.8738 10.1801 40.0207 10.4874Z" fill="black"/>
<path d="M29 17H35.9884V31.3879H29V17Z" fill="#FFCFCF"/>
</svg>
