<svg width="72" height="72" viewBox="0 0 72 72" fill="none" xmlns="http://www.w3.org/2000/svg">
<rect width="72" height="72" fill="#FF4848"/>
<circle cx="26.4438" cy="27.854" r="7.44384" fill="white"/>
<path d="M52.0837 27.854C52.0837 31.9651 48.751 35.2978 44.6399 35.2978C40.5288 35.2978 37.196 31.9651 37.196 27.854C37.196 23.7429 40.5288 20.4102 44.6399 20.4102C48.751 20.4102 52.0837 23.7429 52.0837 27.854Z" fill="white"/>
<circle cx="26.4438" cy="31.1623" r="4.13547" fill="#333333"/>
<circle cx="44.6399" cy="31.1623" r="4.13547" fill="#333333"/>
<path d="M23.4031 18.0194C25.0283 17.497 27.2056 17.0351 28.4354 15.8052" stroke="#333333" stroke-width="2" stroke-linecap="round"/>
<path d="M40.1104 15C40.1104 15 41.2434 16.0422 41.8829 16.2747C42.7641 16.5952 44.0213 16.6103 44.9414 16.6103" stroke="#333333" stroke-width="2" stroke-linecap="round"/>
<path d="M28.3737 40.8119C28.547 40.224 29.0369 39.812 29.5782 39.6094C30.3665 39.3143 31.3141 39.1159 32.1566 39.1652C32.7516 39.2001 33.5777 39.6207 33.9789 40.0807C34.0677 40.1824 34.1467 40.297 34.2422 40.3921C34.4949 40.6437 35.0708 40.5174 35.3502 40.4923C36.1672 40.4191 36.9923 40.3194 37.7905 40.1186C38.0977 40.0413 38.3952 39.9469 38.7134 39.9344C39.1587 39.9169 39.6155 40.0289 40.0065 40.2513C41.123 40.8865 42.5858 40.6657 43.8128 40.6657" stroke="#333333" stroke-width="3" stroke-linecap="round"/>
</svg>
