<svg width="72" height="72" viewBox="0 0 72 72" fill="none" xmlns="http://www.w3.org/2000/svg">
<path fill-rule="evenodd" clip-rule="evenodd" d="M21.1765 0C26.948 0 32.1803 2.40315 36 6.30052C39.8197 2.40315 45.052 0 50.8235 0C62.519 0 72 9.86802 72 22.0408C72 27.3381 70.2045 32.1989 67.2124 36C70.2045 39.801 72 44.6619 72 49.9592C72 62.132 62.519 72 50.8235 72C45.052 72 39.8197 69.5968 36 65.6995C32.1803 69.5968 26.948 72 21.1765 72C9.48103 72 0 62.132 0 49.9592C0 44.6619 1.7955 39.801 4.78763 36C1.7955 32.1989 0 27.3381 0 22.0408C0 9.86802 9.48103 0 21.1765 0Z" fill="#149CFF"/>
<path d="M36 28C36 30.1217 35.1571 32.1566 33.6569 33.6569C32.1566 35.1571 30.1217 36 28 36C25.8783 36 23.8434 35.1571 22.3431 33.6569C20.8429 32.1566 20 30.1217 20 28L28 28H36Z" fill="white"/>
<path d="M54 28C54 30.1217 53.1571 32.1566 51.6569 33.6569C50.1566 35.1571 48.1217 36 46 36C43.8783 36 41.8434 35.1571 40.3431 33.6569C38.8429 32.1566 38 30.1217 38 28L46 28H54Z" fill="white"/>
<path d="M30.9474 28C30.9474 28.3871 30.8711 28.7703 30.723 29.1279C30.5749 29.4855 30.3578 29.8104 30.0841 30.0841C29.8104 30.3578 29.4855 30.5749 29.1279 30.723C28.7703 30.8711 28.3871 30.9474 28 30.9474C27.613 30.9474 27.2297 30.8711 26.8721 30.723C26.5145 30.5749 26.1896 30.3578 25.9159 30.0841C25.6422 29.8104 25.4251 29.4855 25.277 29.1279C25.1289 28.7703 25.0526 28.3871 25.0526 28L28 28H30.9474Z" fill="#5A5A5A"/>
<path d="M48.9474 28C48.9474 28.7817 48.6369 29.5314 48.0841 30.0841C47.5314 30.6368 46.7817 30.9474 46 30.9474C45.2183 30.9474 44.4686 30.6368 43.9159 30.0841C43.3632 29.5314 43.0526 28.7817 43.0526 28L46 28H48.9474Z" fill="#5A5A5A"/>
</svg>
