<svg width="85" height="72" viewBox="0 0 85 72" fill="none" xmlns="http://www.w3.org/2000/svg">
<path d="M85 36L63.75 72L21.25 72L8.10576e-07 36L21.25 -2.7866e-06L63.75 -9.28867e-07L85 36Z" fill="#149CFF"/>
<path d="M47 33C47 32.4477 47.584 32 48.3043 32H55.6957C56.416 32 57 32.4477 57 33C57 33.5523 56.416 34 55.6957 34H48.3043C47.584 34 47 33.5523 47 33Z" fill="#333333"/>
<path d="M31 33C31 32.4477 31.584 32 32.3043 32H39.6957C40.416 32 41 32.4477 41 33C41 33.5523 40.416 34 39.6957 34H32.3043C31.584 34 31 33.5523 31 33Z" fill="#333333"/>
<path d="M36 40.9643C36 40.4317 36.4317 40 36.9643 40H49.8214C50.354 40 50.7857 40.4317 50.7857 40.9643C50.7857 41.4968 50.354 41.9286 49.8214 41.9286H36.9643C36.4317 41.9286 36 41.4968 36 40.9643Z" fill="#333333"/>
</svg>
