<svg width="66" height="80" viewBox="0 0 66 80" fill="none" xmlns="http://www.w3.org/2000/svg">
<path fill-rule="evenodd" clip-rule="evenodd" d="M65.0509 16.2627C65.0509 20.6497 61.5768 24.631 55.9291 27.5563C61.5768 30.4816 65.0509 34.4629 65.0509 38.8499C65.0509 43.7071 60.7921 48.067 54.0396 51.0469C60.7921 54.0268 65.0509 58.3867 65.0509 63.244C65.0509 72.2256 50.4888 79.5067 32.5255 79.5067C14.5621 79.5067 0 72.2256 0 63.244C0 58.3867 4.25884 54.0268 11.0113 51.0469C4.25884 48.067 0 43.7071 0 38.8499C0 34.4629 3.47414 30.4816 9.12184 27.5563C3.47414 24.631 0 20.6497 0 16.2627C0 7.28107 14.5621 0 32.5255 0C50.4888 0 65.0509 7.28107 65.0509 16.2627Z" fill="#39E492"/>
<path fill-rule="evenodd" clip-rule="evenodd" d="M26.827 13C26.9824 13 27.1085 13.1127 27.1085 13.2517C27.1085 13.6128 27.3371 13.9634 27.7602 14.2336C28.1827 14.5035 28.7809 14.6783 29.4545 14.6783C30.1282 14.6783 30.7263 14.5035 31.1489 14.2336C31.5719 13.9634 31.8006 13.6128 31.8006 13.2517C31.8006 13.1127 31.9266 13 32.0821 13C32.2376 13 32.3636 13.1127 32.3636 13.2517C32.3636 13.8176 32.0041 14.3062 31.4761 14.6434C30.9477 14.9809 30.232 15.1818 29.4545 15.1818C28.677 15.1818 27.9614 14.9809 27.4329 14.6434C26.905 14.3062 26.5454 13.8176 26.5454 13.2517C26.5454 13.1127 26.6715 13 26.827 13Z" fill="black"/>
<path fill-rule="evenodd" clip-rule="evenodd" d="M34.0997 13C34.2552 13 34.3812 13.1503 34.3812 13.3357C34.3812 13.8171 34.6099 14.2846 35.0329 14.6449C35.4555 15.0047 36.0536 15.2378 36.7273 15.2378C37.4009 15.2378 37.9991 15.0047 38.4216 14.6449C38.8447 14.2846 39.0733 13.8171 39.0733 13.3357C39.0733 13.1503 39.1994 13 39.3548 13C39.5103 13 39.6364 13.1503 39.6364 13.3357C39.6364 14.0901 39.2768 14.7415 38.7489 15.1911C38.2204 15.6412 37.5048 15.9091 36.7273 15.9091C35.9498 15.9091 35.2341 15.6412 34.7057 15.1911C34.1777 14.7415 33.8182 14.0901 33.8182 13.3357C33.8182 13.1503 33.9442 13 34.0997 13Z" fill="black"/>
<path fill-rule="evenodd" clip-rule="evenodd" d="M46.8826 16.7308C46.935 16.8231 46.9073 16.9433 46.8208 16.9993C35.6114 24.2452 24.3299 20.0195 20.0815 16.9947C19.9974 16.9348 19.9747 16.8134 20.0308 16.7236C20.0868 16.6337 20.2005 16.6094 20.2846 16.6693C24.4567 19.6399 35.5812 23.8077 46.6312 16.6648C46.7177 16.6088 46.8303 16.6384 46.8826 16.7308Z" fill="#FF4848"/>
</svg>
