<svg width="72" height="72" viewBox="0 0 72 72" fill="none" xmlns="http://www.w3.org/2000/svg">
<path d="M0 36C0 16.1177 16.1177 0 36 0V0C55.8823 0 72 16.1177 72 36V72H0V36Z" fill="#FF4848"/>
<circle cx="27.9231" cy="27.5386" r="6.92308" fill="white"/>
<path d="M51.7692 27.5386C51.7692 31.3621 48.6697 34.4616 44.8461 34.4616C41.0226 34.4616 37.9231 31.3621 37.9231 27.5386C37.9231 23.715 41.0226 20.6155 44.8461 20.6155C48.6697 20.6155 51.7692 23.715 51.7692 27.5386Z" fill="white"/>
<circle cx="27.9231" cy="24.9743" r="3.84615" fill="#333333"/>
<circle cx="44.8462" cy="24.9743" r="3.84615" fill="#333333"/>
<path d="M39.7243 34.718C39.7243 34.7929 39.6825 34.898 39.531 35.026C39.3805 35.153 39.148 35.2787 38.8389 35.3891C38.2227 35.6091 37.355 35.75 36.3846 35.75C35.4142 35.75 34.5465 35.6091 33.9304 35.3891C33.6212 35.2787 33.3887 35.153 33.2382 35.026C33.0867 34.898 33.0449 34.7929 33.0449 34.718C33.0449 34.6431 33.0867 34.5379 33.2382 34.4099C33.3887 34.2829 33.6212 34.1573 33.9304 34.0469C34.5465 33.8268 35.4142 33.6859 36.3846 33.6859C37.355 33.6859 38.2227 33.8268 38.8389 34.0469C39.148 34.1573 39.3805 34.2829 39.531 34.4099C39.6825 34.5379 39.7243 34.6431 39.7243 34.718Z" fill="#FF9C9C" stroke="#333333" stroke-width="0.5"/>
<path d="M24.0769 18.9403C24.9052 18.8368 25.8418 18.3687 26.6299 18.0184C27.1884 17.7702 27.6342 17.3213 28.2254 17.0256" stroke="#333333" stroke-width="2" stroke-linecap="round"/>
<path d="M42.5385 16C42.6861 17.3287 45.1691 18.2202 46.2083 18.3934" stroke="#333333" stroke-width="2" stroke-linecap="round"/>
<ellipse cx="22.5385" cy="33.4359" rx="1.53846" ry="1.02564" fill="#9ACFFF"/>
</svg>
