<svg width="72" height="72" viewBox="0 0 72 72" fill="none" xmlns="http://www.w3.org/2000/svg">
<rect width="72" height="72" fill="#149CFF"/>
<path d="M32 33C34.78 33 37.5244 33.4141 40.2812 33.4141C41.6549 33.4141 42.9177 33 44.4217 33" stroke="#FF4848" stroke-width="2" stroke-linecap="round"/>
<circle cx="29.1524" cy="22.6738" r="7.36979" transform="rotate(-0.888797 29.1524 22.6738)" fill="white"/>
<circle cx="46.2482" cy="22.4085" r="7.36979" transform="rotate(-0.888797 46.2482 22.4085)" fill="white"/>
<circle cx="29.4517" cy="22.964" r="2.94792" transform="rotate(-0.888797 29.4517 22.964)" fill="#333333"/>
<circle cx="44.779" cy="22.7262" r="2.94792" transform="rotate(-0.888797 44.779 22.7262)" fill="#333333"/>
<path d="M48.6693 29.4198C48.9656 29.3855 50.5343 29.2733 50.6397 29.0819C51.1236 28.2037 49.3728 28.597 48.8107 28.6274C48.3854 28.6504 48.4455 28.8983 48.5675 29.2238C48.7547 29.7234 49.2003 29.6091 49.66 29.602C49.9468 29.5976 51.0977 29.4535 50.5921 28.8412C50.2422 28.4176 47.8701 28.369 47.9815 28.9476C48.2056 30.1115 49.8852 29.5985 50.7573 29.585C51.6863 29.5706 53.4974 29.343 51.7385 29.1637C50.8409 29.0722 49.9637 28.7012 49.0582 29.0187" stroke="#9ACFFF" stroke-width="2" stroke-linecap="round"/>
</svg>
