<svg width="88" height="81" viewBox="0 0 88 81" fill="none" xmlns="http://www.w3.org/2000/svg">
<path d="M63.6881 74.1689C63.222 74.0757 63.0957 74.0347 62.5585 74.0197C58.5843 73.9089 54.5717 74.1014 50.6018 74.1689C43.1426 74.2958 35.5976 74.1061 28.1591 74.787C27.1425 74.8801 24.1224 75.3198 25.1433 75.3198C27.8239 75.3198 30.5693 74.8902 33.2316 74.6378C39.7884 74.0162 46.3257 73.2132 52.861 72.3999C54.0908 72.2469 57.7057 71.7921 59.3722 71.5794C61.324 71.3302 58.8336 71.4427 58.7434 71.4409C52.9836 71.32 47.2321 71.6102 41.4798 71.8671C34.3865 72.1839 27.2458 72.2317 20.1667 72.7836C18.6403 72.9026 19.3933 73.0062 20.4011 73.1033C23.3601 73.3883 26.3501 73.4981 29.3207 73.5615C35.1406 73.6858 40.945 73.3013 46.7441 72.8475C47.6476 72.7768 48.5628 72.7722 49.4509 72.5918C49.7778 72.5254 48.7934 72.4584 48.4598 72.4532C42.8456 72.3662 37.2266 72.4575 31.6118 72.4426C22.1478 72.4173 12.6854 72.2231 3.22273 72.0802C-0.157712 72.0292 2.15906 72.0589 3.22273 72.0589C15.7833 72.0589 28.3438 72.0589 40.9043 72.0589C42.652 72.0589 37.409 72.0589 35.6613 72.0589C28.4017 72.0589 21.0992 72.3638 13.8793 73.1459C6.28619 73.9685 29.1794 73.9891 36.7909 73.359C40.1223 73.0833 43.4466 72.8642 46.7868 72.8262C49.1012 72.7999 51.4041 72.4426 53.7135 72.4426C56.5665 72.4426 59.3846 72.8173 62.2388 72.8262C65.0506 72.835 67.8054 72.7968 70.5935 73.2098C71.2158 73.302 72.1241 73.0221 72.4478 73.5615C72.5148 73.6732 72.1939 73.6252 72.0641 73.6361C70.5251 73.765 68.9806 73.8177 67.4392 73.9132C62.0609 74.2463 56.6727 74.5277 51.3051 75.0108C48.6995 75.2453 53.2369 75.128 53.5004 75.128C55.9308 75.128 58.3628 74.9895 60.7895 74.9895C62.9722 74.9895 56.5111 75.8599 54.3849 76.3535C53.9343 76.4581 53.0752 76.6512 54.0758 76.6626C55.6982 76.681 57.3237 76.6715 58.9459 76.6519C60.5298 76.6328 61.606 76.6082 63.2085 76.5667C63.8302 76.5506 64.4516 76.5236 65.0734 76.5134C65.5998 76.5047 66.2372 76.4661 65.4144 76.6413C63.2741 77.0969 61.1045 77.4366 58.9459 77.7922C56.9639 78.1186 58.9241 77.9955 59.6173 77.9627C62.1988 77.8405 64.7906 77.757 67.3752 77.8241C70.4699 77.9045 61.2408 78.6935 58.2106 79.3267C53.6022 80.2897 67.6086 78.746 72.3092 78.4848C73.0731 78.4424 73.8353 78.3889 74.6004 78.3889C74.9521 78.3889 75.8127 78.6928 75.6554 78.3783C75.4242 77.916 72.2275 78.1984 71.8723 78.1971C70.3591 78.1914 68.8458 78.1971 67.3326 78.1971C65.7933 78.1971 61.1969 78.6123 62.7183 78.3783C64.066 78.1709 65.4423 78.1541 66.7998 78.0692C73.1762 77.6707 79.5434 77.1437 85.9177 76.7159C88.6471 76.5327 84.6227 76.8544 83.9782 76.8544C80.6 76.8544 76.8399 77.1685 73.4814 77.7282C71.0087 78.1404 63.483 78.3889 65.9899 78.3889" stroke="#9ACFFF" stroke-width="2" stroke-linecap="round"/>
<rect x="7" width="72" height="72" fill="#149CFF"/>
<circle cx="37.9759" cy="42.6231" r="7.36979" transform="rotate(-75 37.9759 42.6231)" fill="white"/>
<circle cx="42.4011" cy="26.1079" r="7.36979" transform="rotate(-75 42.4011 26.1079)" fill="white"/>
<circle cx="38.3369" cy="42.4148" r="2.94792" transform="rotate(-75 38.3369 42.4148)" fill="#333333"/>
<circle cx="42.3044" cy="27.6079" r="2.94792" transform="rotate(-75 42.3044 27.6079)" fill="#333333"/>
<path d="M49.8073 25.6987C49.8555 25.4044 50.1769 23.8649 50.0218 23.7111C49.3096 23.0052 49.2086 24.7968 49.0839 25.3458C48.9895 25.7611 49.2445 25.7712 49.591 25.743C50.1227 25.6997 50.1348 25.2398 50.2538 24.7958C50.328 24.5187 50.5045 23.3724 49.7772 23.691C49.274 23.9115 48.5779 26.1797 49.1648 26.2309C50.3456 26.3341 50.3121 24.5782 50.5378 23.7358C50.7783 22.8383 51.0552 21.034 50.4012 22.6766C50.0675 23.5149 49.4705 24.257 49.528 25.2148" stroke="#9ACFFF" stroke-width="2" stroke-linecap="round"/>
<path d="M42.9717 48.8488C42.6382 47.0145 41.4059 51.195 42.0126 49.339C42.0725 49.1557 42.6407 47.5217 42.3962 47.3995C42.2633 47.333 40.787 49.7116 40.7125 49.8505C40.3336 50.5569 39.7168 51.9899 41.0961 51.3425C42.0086 50.9141 42.6507 50.1017 42.8225 49.1472C42.995 48.1887 43.1635 47.51 43.1635 46.547" stroke="#9ACFFF" stroke-width="3" stroke-linecap="round"/>
<path d="M41.8208 53.0688C40.6683 53.4879 40.6104 55.5713 40.6805 56.5535C40.7793 57.9368 41.053 58.9435 40.2969 60.2194C39.3997 61.7334 38.7517 63.0659 38.7517 64.8657C38.7517 65.5314 39.1253 65.8584 38.6664 66.5814C38.2594 67.2227 37.8695 67.7221 37.6434 68.4569C37.3304 69.4741 37.6487 70.3564 37.0253 71.2916" stroke="#9ACFFF" stroke-width="2" stroke-linecap="round"/>
<path d="M41.8208 52.3016C42.6483 51.0478 43.3553 49.8031 43.3553 48.2734" stroke="#9ACFFF" stroke-width="2" stroke-linecap="round"/>
</svg>
