<svg width="66" height="80" viewBox="0 0 66 80" fill="none" xmlns="http://www.w3.org/2000/svg">
<path fill-rule="evenodd" clip-rule="evenodd" d="M65.0509 16.2627C65.0509 20.6497 61.5768 24.631 55.9291 27.5563C61.5768 30.4816 65.0509 34.4629 65.0509 38.8499C65.0509 43.7071 60.7921 48.067 54.0396 51.0469C60.7921 54.0268 65.0509 58.3867 65.0509 63.244C65.0509 72.2256 50.4888 79.5067 32.5255 79.5067C14.5621 79.5067 0 72.2256 0 63.244C0 58.3867 4.25884 54.0268 11.0113 51.0469C4.25884 48.067 0 43.7071 0 38.8499C0 34.4629 3.47414 30.4816 9.12184 27.5563C3.47414 24.631 0 20.6497 0 16.2627C0 7.28107 14.5621 0 32.5255 0C50.4888 0 65.0509 7.28107 65.0509 16.2627Z" fill="#149CFF"/>
<path d="M31.091 19.5455C31.091 23.1605 28.1605 26.091 24.5455 26.091C20.9305 26.091 18 23.1605 18 19.5455C18 15.9305 20.9305 13 24.5455 13C28.1605 13 31.091 15.9305 31.091 19.5455Z" fill="white"/>
<path d="M47.091 19.5455C47.091 23.1605 44.1605 26.091 40.5455 26.091C36.9305 26.091 34 23.1605 34 19.5455C34 15.9305 36.9305 13 40.5455 13C44.1605 13 47.091 15.9305 47.091 19.5455Z" fill="white"/>
<path d="M26.2425 21.9698C26.2425 23.9781 24.6144 25.6062 22.6061 25.6062C20.5978 25.6062 18.9697 23.9781 18.9697 21.9698C18.9697 19.9614 20.5978 18.3334 22.6061 18.3334C24.6144 18.3334 26.2425 19.9614 26.2425 21.9698Z" fill="#333333"/>
<path d="M42.2425 21.9698C42.2425 23.9781 40.6144 25.6062 38.6061 25.6062C36.5978 25.6062 34.9697 23.9781 34.9697 21.9698C34.9697 19.9614 36.5978 18.3334 38.6061 18.3334C40.6144 18.3334 42.2425 19.9614 42.2425 21.9698Z" fill="#333333"/>
<path fill-rule="evenodd" clip-rule="evenodd" d="M34.7507 28.1749C32.9331 28.2857 30.989 28.6669 29.7575 28.9847C29.4982 29.0516 29.2338 28.8957 29.1669 28.6364C29.1 28.3771 29.2559 28.1127 29.5152 28.0458C30.7888 27.7171 32.7962 27.3225 34.6917 27.207C35.6388 27.1493 36.5765 27.16 37.3887 27.2911C38.1871 27.42 38.938 27.6766 39.4338 28.1724C39.6231 28.3617 39.6231 28.6687 39.4338 28.8581C39.2444 29.0474 38.9375 29.0474 38.7481 28.8581C38.4681 28.5781 37.9624 28.366 37.2341 28.2484C36.5195 28.1331 35.6602 28.1195 34.7507 28.1749Z" fill="#FF9C9C"/>
</svg>
