<svg width="85" height="72" viewBox="0 0 85 72" fill="none" xmlns="http://www.w3.org/2000/svg">
<path d="M85 36L63.75 72L21.25 72L8.10576e-07 36L21.25 -2.7866e-06L63.75 -9.28867e-07L85 36Z" fill="#FFB039"/>
<path d="M41 33.5C41 37.6421 37.4183 41 33 41C28.5817 41 25 37.6421 25 33.5C25 29.3579 28.5817 26 33 26C37.4183 26 41 29.3579 41 33.5Z" fill="white"/>
<path d="M61 33.5C61 37.6421 57.4183 41 53 41C48.5817 41 45 37.6421 45 33.5C45 29.3579 48.5817 26 53 26C57.4183 26 61 29.3579 61 33.5Z" fill="white"/>
<path fill-rule="evenodd" clip-rule="evenodd" d="M38.3081 33.5701L31.7089 28.0437L32.1398 27.529L39.7693 33.9182L29.823 36.2404L29.6704 35.5867L38.3081 33.5701Z" fill="#333333"/>
<path fill-rule="evenodd" clip-rule="evenodd" d="M48.1273 33.5701L54.7266 28.0437L54.2956 27.529L46.6661 33.9182L56.6124 36.2404L56.7651 35.5867L48.1273 33.5701Z" fill="#333333"/>
<path fill-rule="evenodd" clip-rule="evenodd" d="M38.7899 33.9327L30.478 31.7055L30.6517 31.0571L38.9637 33.2843L38.7899 33.9327Z" fill="#333333"/>
<path fill-rule="evenodd" clip-rule="evenodd" d="M47.6452 33.9327L55.9572 31.7055L55.7834 31.0571L47.4715 33.2843L47.6452 33.9327Z" fill="#333333"/>
<path d="M49 41C49 41.6566 48.8448 42.3068 48.5433 42.9134C48.2417 43.52 47.7998 44.0712 47.2426 44.5355C46.6855 44.9998 46.0241 45.3681 45.2961 45.6194C44.5681 45.8707 43.7879 46 43 46C42.2121 46 41.4319 45.8707 40.7039 45.6194C39.9759 45.3681 39.3145 44.9998 38.7574 44.5355C38.2002 44.0712 37.7583 43.52 37.4567 42.9134C37.1552 42.3068 37 41.6566 37 41L43 41H49Z" fill="#FFCFCF"/>
</svg>
