<svg width="66" height="80" viewBox="0 0 66 80" fill="none" xmlns="http://www.w3.org/2000/svg">
<path fill-rule="evenodd" clip-rule="evenodd" d="M65.0509 16.2627C65.0509 20.6497 61.5768 24.631 55.9291 27.5563C61.5768 30.4816 65.0509 34.4629 65.0509 38.8499C65.0509 43.7071 60.7921 48.067 54.0396 51.0469C60.7921 54.0268 65.0509 58.3867 65.0509 63.244C65.0509 72.2256 50.4888 79.5067 32.5255 79.5067C14.5621 79.5067 0 72.2256 0 63.244C0 58.3867 4.25884 54.0268 11.0113 51.0469C4.25884 48.067 0 43.7071 0 38.8499C0 34.4629 3.47414 30.4816 9.12184 27.5563C3.47414 24.631 0 20.6497 0 16.2627C0 7.28107 14.5621 0 32.5255 0C50.4888 0 65.0509 7.28107 65.0509 16.2627Z" fill="#149CFF"/>
<path fill-rule="evenodd" clip-rule="evenodd" d="M42.781 10.1523C42.9841 10.3554 42.9841 10.6846 42.781 10.8877L38.621 15.0477C38.418 15.2508 38.0887 15.2508 37.8856 15.0477C37.6826 14.8446 37.6826 14.5154 37.8856 14.3123L42.0456 10.1523C42.2487 9.94923 42.578 9.94923 42.781 10.1523Z" fill="black"/>
<path fill-rule="evenodd" clip-rule="evenodd" d="M28.0477 10.1523C28.2508 10.3554 28.2508 10.6846 28.0477 10.8877L23.8877 15.0477C23.6846 15.2508 23.3554 15.2508 23.1523 15.0477C22.9492 14.8446 22.9492 14.5154 23.1523 14.3123L27.3123 10.1523C27.5154 9.94923 27.8446 9.94923 28.0477 10.1523Z" fill="black"/>
<path fill-rule="evenodd" clip-rule="evenodd" d="M37.8857 10.1523C37.6826 10.3554 37.6826 10.6846 37.8857 10.8877L42.0457 15.0477C42.2487 15.2508 42.578 15.2508 42.781 15.0477C42.9841 14.8446 42.9841 14.5154 42.781 14.3123L38.621 10.1523C38.418 9.94923 38.0887 9.94923 37.8857 10.1523Z" fill="black"/>
<path fill-rule="evenodd" clip-rule="evenodd" d="M23.1523 10.1523C22.9492 10.3554 22.9492 10.6846 23.1523 10.8877L27.3123 15.0477C27.5154 15.2508 27.8446 15.2508 28.0477 15.0477C28.2508 14.8446 28.2508 14.5154 28.0477 14.3123L23.8877 10.1523C23.6846 9.94923 23.3554 9.94923 23.1523 10.1523Z" fill="black"/>
<path d="M36.8667 19.5333C36.8667 21.4479 35.1206 23 32.9667 23C30.8128 23 29.0667 21.4479 29.0667 19.5333C29.0667 17.6187 30.8128 16.0667 32.9667 16.0667C35.1206 16.0667 36.8667 17.6187 36.8667 19.5333Z" fill="#FF4848"/>
</svg>
