<svg width="72" height="72" viewBox="0 0 72 72" fill="none" xmlns="http://www.w3.org/2000/svg">
<path fill-rule="evenodd" clip-rule="evenodd" d="M21.1765 0C26.948 0 32.1803 2.40315 36 6.30052C39.8197 2.40315 45.052 0 50.8235 0C62.519 0 72 9.86802 72 22.0408C72 27.3381 70.2045 32.1989 67.2124 36C70.2045 39.801 72 44.6619 72 49.9592C72 62.132 62.519 72 50.8235 72C45.052 72 39.8197 69.5968 36 65.6995C32.1803 69.5968 26.948 72 21.1765 72C9.48103 72 0 62.132 0 49.9592C0 44.6619 1.7955 39.801 4.78763 36C1.7955 32.1989 0 27.3381 0 22.0408C0 9.86802 9.48103 0 21.1765 0Z" fill="#FDF568"/>
<path d="M34.195 26.5417C34.195 29.8747 31.493 32.5767 28.16 32.5767C24.827 32.5767 22.125 29.8747 22.125 26.5417C22.125 23.2087 24.827 20.5067 28.16 20.5067C31.493 20.5067 34.195 23.2087 34.195 26.5417Z" fill="white" stroke="black" stroke-width="0.25"/>
<path d="M49.875 26.5417C49.875 29.8747 47.1731 32.5767 43.84 32.5767C40.507 32.5767 37.8051 29.8747 37.8051 26.5417C37.8051 23.2087 40.507 20.5067 43.84 20.5067C47.1731 20.5067 49.875 23.2087 49.875 26.5417Z" fill="white" stroke="black" stroke-width="0.25"/>
<path d="M30.9599 23.7417C30.9599 25.5974 29.4556 27.1017 27.5999 27.1017C25.7442 27.1017 24.2399 25.5974 24.2399 23.7417C24.2399 21.886 25.7442 20.3817 27.5999 20.3817C29.4556 20.3817 30.9599 21.886 30.9599 23.7417Z" fill="#333333"/>
<path d="M46.6387 23.7412C46.6387 25.5966 45.1347 27.1007 43.2793 27.1007C41.4239 27.1007 39.9198 25.5966 39.9198 23.7412C39.9198 21.8858 41.4239 20.3817 43.2793 20.3817C45.1347 20.3817 46.6387 21.8858 46.6387 23.7412Z" fill="#333333"/>
<path d="M38.7999 33.8217C38.7999 35.0588 37.797 36.0617 36.5599 36.0617C35.3228 36.0617 34.3199 35.0588 34.3199 33.8217C34.3199 32.5845 35.3228 31.5817 36.5599 31.5817C37.797 31.5817 38.7999 32.5845 38.7999 33.8217Z" fill="#FFBEDD"/>
<path fill-rule="evenodd" clip-rule="evenodd" d="M36.5599 35.4507C37.4596 35.4507 38.189 34.7214 38.189 33.8217C38.189 32.9219 37.4596 32.1926 36.5599 32.1926C35.6602 32.1926 34.9308 32.9219 34.9308 33.8217C34.9308 34.7214 35.6602 35.4507 36.5599 35.4507ZM36.5599 36.0617C37.797 36.0617 38.7999 35.0588 38.7999 33.8217C38.7999 32.5845 37.797 31.5817 36.5599 31.5817C35.3228 31.5817 34.3199 32.5845 34.3199 33.8217C34.3199 35.0588 35.3228 36.0617 36.5599 36.0617Z" fill="#414141"/>
<path d="M28.72 22.0617C28.72 22.9895 27.9678 23.7417 27.04 23.7417C26.1121 23.7417 25.36 22.9895 25.36 22.0617C25.36 21.1339 26.1121 20.3817 27.04 20.3817C27.9678 20.3817 28.72 21.1339 28.72 22.0617Z" fill="white"/>
<path d="M30.9598 25.4218C30.9598 26.3497 30.4583 27.1018 29.8398 27.1018C29.2212 27.1018 28.7198 26.3497 28.7198 25.4218C28.7198 24.494 29.2212 23.7418 29.8398 23.7418C30.4583 23.7418 30.9598 24.494 30.9598 25.4218Z" fill="white"/>
<path d="M46.6224 25.7542C46.6224 26.3727 45.8703 26.8742 44.9424 26.8742C44.0146 26.8742 43.2625 26.3727 43.2625 25.7542C43.2625 25.1356 44.0146 24.6342 44.9424 24.6342C45.8703 24.6342 46.6224 25.1356 46.6224 25.7542Z" fill="white"/>
<path d="M43.7875 22.0617C43.7875 22.9895 43.0353 23.7417 42.1075 23.7417C41.1797 23.7417 40.4275 22.9895 40.4275 22.0617C40.4275 21.1339 41.1797 20.3817 42.1075 20.3817C43.0353 20.3817 43.7875 21.1339 43.7875 22.0617Z" fill="white"/>
</svg>
