<svg width="66" height="80" viewBox="0 0 66 80" fill="none" xmlns="http://www.w3.org/2000/svg">
<path fill-rule="evenodd" clip-rule="evenodd" d="M65.0509 16.2627C65.0509 20.6497 61.5768 24.631 55.9291 27.5563C61.5768 30.4816 65.0509 34.4629 65.0509 38.8499C65.0509 43.7071 60.7921 48.067 54.0396 51.0469C60.7921 54.0268 65.0509 58.3867 65.0509 63.244C65.0509 72.2256 50.4888 79.5067 32.5255 79.5067C14.5621 79.5067 0 72.2256 0 63.244C0 58.3867 4.25884 54.0268 11.0113 51.0469C4.25884 48.067 0 43.7071 0 38.8499C0 34.4629 3.47414 30.4816 9.12184 27.5563C3.47414 24.631 0 20.6497 0 16.2627C0 7.28107 14.5621 0 32.5255 0C50.4888 0 65.0509 7.28107 65.0509 16.2627Z" fill="#FF4848"/>
<path d="M26.2223 24.389C26.2223 27.3447 23.9671 29.7408 21.1852 29.7408C18.4034 29.7408 16.1482 27.3447 16.1482 24.389C16.1482 21.4332 18.4034 19.0371 21.1852 19.0371C23.9671 19.0371 26.2223 21.4332 26.2223 24.389Z" fill="white"/>
<path d="M38.8149 24.389C38.8149 27.3447 36.5597 29.7408 33.7778 29.7408C30.9959 29.7408 28.7408 27.3447 28.7408 24.389C28.7408 21.4332 30.9959 19.0371 33.7778 19.0371C36.5597 19.0371 38.8149 21.4332 38.8149 24.389Z" fill="white"/>
<path d="M26.2223 24.3889C26.2223 25.9537 24.9537 27.2222 23.3889 27.2222C21.8241 27.2222 20.5556 25.9537 20.5556 24.3889C20.5556 22.8241 21.8241 21.5555 23.3889 21.5555C24.9537 21.5555 26.2223 22.8241 26.2223 24.3889Z" fill="#333333"/>
<path d="M38.8149 24.3889C38.8149 25.9537 37.5463 27.2222 35.9815 27.2222C34.4167 27.2222 33.1482 25.9537 33.1482 24.3889C33.1482 22.8241 34.4167 21.5555 35.9815 21.5555C37.5463 21.5555 38.8149 22.8241 38.8149 24.3889Z" fill="#333333"/>
<path d="M24.963 30.3467C24.963 31.5188 25.8087 30.756 26.8519 30.756C27.8951 30.756 28.7408 31.5188 28.7408 30.3467C28.7408 29.1746 27.8951 27.8518 26.8519 27.8518C25.8087 27.8518 24.963 29.1746 24.963 30.3467Z" fill="#FF9C9C"/>
<path fill-rule="evenodd" clip-rule="evenodd" d="M25.3984 30.5501C25.391 30.5139 25.3828 30.4506 25.3828 30.3467C25.3828 29.868 25.5588 29.3391 25.8492 28.9335C26.1415 28.5255 26.5031 28.3015 26.8519 28.3015C27.2007 28.3015 27.5623 28.5255 27.8545 28.9335C28.145 29.3391 28.321 29.868 28.321 30.3467C28.321 30.4506 28.3128 30.5139 28.3054 30.5501C28.2888 30.5497 28.2667 30.5481 28.2378 30.5444C28.1387 30.5316 28.0322 30.505 27.892 30.47C27.8282 30.4541 27.7575 30.4365 27.6772 30.4176C27.4418 30.3622 27.1583 30.3062 26.8519 30.3062C26.5455 30.3062 26.262 30.3622 26.0266 30.4176C25.9463 30.4365 25.8755 30.4541 25.8118 30.47C25.6716 30.505 25.5651 30.5316 25.466 30.5444C25.4371 30.5481 25.415 30.5497 25.3984 30.5501ZM25.9318 30.902C25.3538 31.0461 24.963 31.1435 24.963 30.3467C24.963 29.1746 25.8087 27.8518 26.8519 27.8518C27.8951 27.8518 28.7408 29.1746 28.7408 30.3467C28.7408 31.1435 28.35 31.0461 27.7719 30.902C27.4997 30.8342 27.1859 30.756 26.8519 30.756C26.5179 30.756 26.2041 30.8342 25.9318 30.902Z" fill="#333333"/>
<path fill-rule="evenodd" clip-rule="evenodd" d="M46.0815 20.9266C46.4053 20.9403 46.6563 21.2079 46.6423 21.5243C46.6133 22.1747 46.5387 22.8372 46.4665 23.4788C46.4512 23.615 46.436 23.7502 46.4213 23.8842C46.3363 24.6612 46.2687 25.4071 46.2881 26.1288L46.2881 26.1287C46.2881 26.1287 46.2882 26.1321 46.2888 26.1396C46.2894 26.1477 46.2903 26.1585 46.2918 26.1722C46.2946 26.1999 46.299 26.2357 46.3052 26.279C46.3175 26.3655 46.3359 26.4756 46.3607 26.5999C46.4108 26.8506 46.4837 27.144 46.5775 27.4089C46.662 27.6474 46.7483 27.8185 46.8214 27.9183C47.0101 27.7978 47.2263 27.5855 47.406 27.3142C47.6217 26.9884 47.7227 26.6717 47.7149 26.4594C47.7057 26.2066 47.6212 25.9376 47.5083 25.6067C47.4058 25.3063 47.572 24.9816 47.8794 24.8815C48.1869 24.7813 48.5192 24.9437 48.6217 25.2441L48.6222 25.2458C48.7283 25.5568 48.8716 25.9768 48.8878 26.4185C48.9073 26.9531 48.6787 27.5031 48.3914 27.9371C48.1022 28.3738 47.6913 28.7873 47.2334 29.0066C47.0046 29.1162 46.7514 29.1438 46.5043 29.0696C46.2743 29.0005 46.1021 28.8591 45.9797 28.7242C45.7425 28.4626 45.5804 28.1001 45.4684 27.7839C45.2412 27.1423 45.1213 26.3952 45.1149 26.159C45.0932 25.3551 45.1688 24.5437 45.2543 23.7623C45.2699 23.6205 45.2857 23.48 45.3013 23.3405C45.3733 22.7002 45.4427 22.0834 45.4698 21.4745C45.4838 21.1581 45.7577 20.9128 46.0815 20.9266ZM46.884 27.9886C46.884 27.9886 46.8838 27.9885 46.8834 27.9882C46.8838 27.9884 46.884 27.9886 46.884 27.9886Z" fill="white"/>
<path fill-rule="evenodd" clip-rule="evenodd" d="M43.1985 14.1472C43.4049 14.3609 43.4235 14.7292 43.24 14.9697C43.1152 15.1332 43.0287 15.4337 42.9901 15.8837C42.9625 16.2039 42.9634 16.5213 42.9642 16.8342C42.9645 16.956 42.9648 17.0772 42.9634 17.1976C42.9592 17.5721 43.0224 17.7079 43.0583 17.7549C43.0836 17.7879 43.1676 17.8711 43.4663 17.8718C43.4717 17.8497 43.478 17.8137 43.4804 17.7598C43.4852 17.6519 43.4719 17.5202 43.4431 17.3918C43.4134 17.2588 43.3762 17.1694 43.3566 17.135C43.2033 16.8673 43.2654 16.5056 43.4953 16.3271C43.7251 16.1486 44.0356 16.221 44.1888 16.4887C44.3731 16.8108 44.5003 17.3475 44.4793 17.8201C44.4685 18.0629 44.4157 18.3621 44.249 18.6131C44.0645 18.8909 43.7886 19.037 43.4705 19.037C43.0307 19.037 42.607 18.9159 42.3119 18.5305C42.0273 18.1588 41.9579 17.6623 41.9633 17.1822C41.9643 17.0971 41.964 16.999 41.9637 16.892C41.9628 16.5646 41.9617 16.153 41.9948 15.7676C42.0383 15.2613 42.1488 14.6459 42.4924 14.1955C42.6759 13.9551 42.9921 13.9334 43.1985 14.1472Z" fill="white"/>
</svg>
