<svg width="85" height="72" viewBox="0 0 85 72" fill="none" xmlns="http://www.w3.org/2000/svg">
<path d="M85 36L63.75 72L21.25 72L8.10576e-07 36L21.25 -2.7866e-06L63.75 -9.28867e-07L85 36Z" fill="#FFB039"/>
<path fill-rule="evenodd" clip-rule="evenodd" d="M40.0954 29.6589C40.3483 29.6589 40.5533 29.864 40.5533 30.1168C40.5533 30.4462 40.7303 30.7793 41.0855 31.0457C41.4408 31.3122 41.9527 31.4906 42.5376 31.4906C43.1225 31.4906 43.6344 31.3122 43.9898 31.0457C44.345 30.7793 44.5219 30.4462 44.5219 30.1168C44.5219 29.864 44.7269 29.6589 44.9798 29.6589C45.2327 29.6589 45.4377 29.864 45.4377 30.1168C45.4377 30.7991 45.068 31.3818 44.5393 31.7784C44.0107 32.1748 43.3015 32.4064 42.5376 32.4064C41.7737 32.4064 41.0645 32.1748 40.536 31.7784C40.0073 31.3818 39.6375 30.7991 39.6375 30.1168C39.6375 29.864 39.8425 29.6589 40.0954 29.6589Z" fill="#333333"/>
<path d="M23.0962 29.5025C23.1493 28.8302 23.7374 28.3282 24.4097 28.3813L28.0616 28.6698C28.7339 28.723 29.2358 29.311 29.1827 29.9833C29.1296 30.6556 28.5415 31.1576 27.8692 31.1045L24.2173 30.8159C23.545 30.7628 23.0431 30.1748 23.0962 29.5025Z" fill="#FFBEDD"/>
<path d="M57.2549 29.8251C57.2195 29.1517 57.7367 28.577 58.4102 28.5416L62.0685 28.3493C62.7419 28.3139 63.3166 28.8311 63.352 29.5046C63.3874 30.178 62.8702 30.7527 62.1967 30.7881L58.5384 30.9804C57.865 31.0158 57.2903 30.4986 57.2549 29.8251Z" fill="#FFBEDD"/>
<path fill-rule="evenodd" clip-rule="evenodd" d="M33.986 25.6567C32.1806 26.0439 30.6386 26.9538 29.7964 27.6532C29.4073 27.9764 28.8299 27.9229 28.5068 27.5338C28.1836 27.1447 28.2371 26.5673 28.6262 26.2441C29.6614 25.3844 31.4668 24.3236 33.6019 23.8658C35.7588 23.4032 38.2985 23.5503 40.6773 25.1979C41.0931 25.4859 41.1967 26.0565 40.9087 26.4723C40.6207 26.8881 40.0502 26.9917 39.6344 26.7037C37.7634 25.4078 35.7695 25.2742 33.986 25.6567Z" fill="#333333"/>
<path fill-rule="evenodd" clip-rule="evenodd" d="M51.1376 25.5224C49.2913 25.5401 47.5983 26.1226 46.633 26.6392C46.187 26.8778 45.6321 26.7098 45.3934 26.2638C45.1548 25.8178 45.3228 25.2628 45.7688 25.0242C46.9552 24.3893 48.9365 23.7117 51.1201 23.6908C53.3259 23.6697 55.7846 24.3226 57.7852 26.4134C58.1349 26.7789 58.1221 27.3586 57.7566 27.7083C57.3912 28.0579 56.8114 28.0452 56.4617 27.6797C54.8883 26.0353 52.9616 25.505 51.1376 25.5224Z" fill="#333333"/>
</svg>
