<svg width="72" height="72" viewBox="0 0 72 72" fill="none" xmlns="http://www.w3.org/2000/svg">
<rect width="72" height="72" fill="#FDF568"/>
<path d="M34 22C34 25.866 30.866 29 27 29C23.134 29 20 25.866 20 22C20 18.134 23.134 15 27 15C30.866 15 34 18.134 34 22Z" fill="white"/>
<path d="M52 22C52 25.866 48.866 29 45 29C41.134 29 38 25.866 38 22C38 18.134 41.134 15 45 15C48.866 15 52 18.134 52 22Z" fill="white"/>
<path d="M31 21.5C31 23.433 29.2091 25 27 25C24.7909 25 23 23.433 23 21.5C23 19.567 24.7909 18 27 18C29.2091 18 31 19.567 31 21.5Z" fill="#333333"/>
<path d="M49 21.5C49 23.433 47.2091 25 45 25C42.7909 25 41 23.433 41 21.5C41 19.567 42.7909 18 45 18C47.2091 18 49 19.567 49 21.5Z" fill="#333333"/>
<path d="M31 29.66C31 26.6815 33.2386 28.62 36 28.62C38.7614 28.62 41 26.6815 41 29.66C41 32.6385 38.7614 36 36 36C33.2386 36 31 32.6385 31 29.66Z" fill="#FF9C9C"/>
<path fill-rule="evenodd" clip-rule="evenodd" d="M31.7381 28.6694C31.6638 28.7391 31.5263 28.9591 31.5263 29.66C31.5263 31.0063 32.0367 32.4682 32.8745 33.591C33.7129 34.7147 34.8253 35.4323 36 35.4323C37.1747 35.4323 38.2871 34.7147 39.1255 33.591C39.9633 32.4682 40.4737 31.0063 40.4737 29.66C40.4737 28.9591 40.3362 28.7391 40.2619 28.6694C40.1873 28.5996 40.0221 28.5341 39.5957 28.587C39.2991 28.6238 38.9698 28.7026 38.5787 28.7963C38.4153 28.8353 38.2412 28.877 38.0542 28.9193C37.4445 29.0571 36.7449 29.1877 36 29.1877C35.2551 29.1877 34.5555 29.0571 33.9458 28.9193C33.7588 28.877 33.5847 28.8353 33.4213 28.7963C33.0302 28.7026 32.7009 28.6238 32.4043 28.587C31.9779 28.5341 31.8127 28.5996 31.7381 28.6694ZM33.5646 28.2488C32.0345 27.8827 31 27.6352 31 29.66C31 32.6385 33.2386 36 36 36C38.7614 36 41 32.6385 41 29.66C41 27.6352 39.9655 27.8827 38.4354 28.2488C37.7148 28.4213 36.8842 28.62 36 28.62C35.1158 28.62 34.2852 28.4213 33.5646 28.2488Z" fill="#333333"/>
<path fill-rule="evenodd" clip-rule="evenodd" d="M27.2948 10.2254C27.6733 9.91301 28.2708 9.92708 28.6294 10.2568C29.2567 10.8336 29.4949 11.0522 29.7597 11.1816C29.9651 11.282 30.2538 11.3554 31.056 11.3554C31.5773 11.3554 32 11.7235 32 12.1777C32 12.6318 31.5773 13 31.056 13C30.1624 13 29.4735 12.9275 28.836 12.616C28.3098 12.3589 27.8731 11.9554 27.3997 11.5179C27.3531 11.4749 27.3061 11.4315 27.2587 11.3879C26.9001 11.0582 26.9163 10.5377 27.2948 10.2254Z" fill="#333333"/>
<path fill-rule="evenodd" clip-rule="evenodd" d="M42.6291 10.087C42.9604 10.2901 43.0947 10.784 42.929 11.1902C42.8236 11.4486 42.6605 11.6742 42.5075 11.8521C42.3471 12.0385 42.1613 12.2144 41.9722 12.3676C41.622 12.6512 41.1512 12.9451 40.7375 12.9959C40.3689 13.041 40.0402 12.7114 40.0034 12.2595C39.9665 11.8076 40.2355 11.4047 40.6041 11.3595C40.6859 11.3495 40.9331 11.2381 41.2327 10.9955C41.3684 10.8856 41.4904 10.7681 41.5844 10.6588C41.6311 10.6046 41.6669 10.5569 41.6926 10.5178C41.7053 10.4986 41.7145 10.4831 41.7207 10.4715C41.7268 10.4603 41.7292 10.4547 41.7292 10.4547L41.7292 10.4547C41.8948 10.0485 42.2977 9.8839 42.6291 10.087Z" fill="#333333"/>
</svg>
