<svg width="85" height="72" viewBox="0 0 85 72" fill="none" xmlns="http://www.w3.org/2000/svg">
<path d="M85 36L63.75 72L21.25 72L8.10576e-07 36L21.25 -2.7866e-06L63.75 -9.28867e-07L85 36Z" fill="#FDF568"/>
<path d="M43.6566 36.8111C45.3917 36.8111 46.7983 37.5144 46.7983 38.3819C46.7983 39.2495 45.3917 39.9528 43.6566 39.9528C41.9216 39.9528 40.515 39.2495 40.515 38.3819C40.515 37.5144 41.9216 36.8111 43.6566 36.8111Z" fill="#FFBEDD"/>
<path fill-rule="evenodd" clip-rule="evenodd" d="M46.3465 36.3346C47.0264 36.6745 47.8456 37.3379 47.8456 38.382C47.8456 39.4261 47.0264 40.0894 46.3465 40.4294C45.6041 40.8006 44.6516 41 43.6567 41C42.6619 41 41.7094 40.8006 40.9669 40.4294C40.2871 40.0894 39.4679 39.4261 39.4679 38.382C39.4679 37.3379 40.2871 36.6745 40.9669 36.3346C41.7094 35.9633 42.6619 35.7639 43.6567 35.7639C44.6516 35.7639 45.6041 35.9633 46.3465 36.3346ZM46.7984 38.382C46.7984 37.5144 45.3918 36.8112 43.6567 36.8112C41.9217 36.8112 40.5151 37.5144 40.5151 38.382C40.5151 39.2495 41.9217 39.9528 43.6567 39.9528C45.3918 39.9528 46.7984 39.2495 46.7984 38.382Z" fill="#414141"/>
<path d="M28.4721 35.2403C28.4721 36.6862 26.1279 37.8584 23.2361 37.8584C20.3443 37.8584 18 36.6862 18 35.2403C18 33.7944 20.3443 32.6223 23.2361 32.6223C26.1279 32.6223 28.4721 33.7944 28.4721 35.2403Z" fill="#FF9C9C"/>
<path d="M65.6481 35.2403C65.6481 36.6862 63.5383 37.8584 60.9357 37.8584C58.333 37.8584 56.2232 36.6862 56.2232 35.2403C56.2232 33.7944 58.333 32.6223 60.9357 32.6223C63.5383 32.6223 65.6481 33.7944 65.6481 35.2403Z" fill="#FF9C9C"/>
<path fill-rule="evenodd" clip-rule="evenodd" d="M36.8154 16.23C37.1221 15.9233 37.6194 15.9233 37.9261 16.23C39.0319 17.3359 40.3372 18.0072 41.8335 18.7554C42.2214 18.9494 42.3787 19.4211 42.1847 19.8091C41.9907 20.1971 41.5189 20.3543 41.131 20.1604C39.656 19.4229 38.1262 18.6516 36.8154 17.3408C36.5086 17.0341 36.5086 16.5368 36.8154 16.23Z" fill="#333333"/>
<path fill-rule="evenodd" clip-rule="evenodd" d="M51.0243 17.0508C51.2183 17.4388 51.061 17.9105 50.673 18.1045C50.4004 18.2408 50.1055 18.3954 49.7944 18.5585C48.6492 19.159 47.2843 19.8746 46.0015 20.2167C45.5824 20.3284 45.152 20.0793 45.0403 19.6601C44.9285 19.241 45.1777 18.8106 45.5968 18.6989C46.6919 18.4068 47.8352 17.8088 48.9597 17.2206C49.299 17.0431 49.6365 16.8665 49.9705 16.6995C50.3585 16.5056 50.8303 16.6628 51.0243 17.0508Z" fill="#333333"/>
<path d="M42.0858 28.6953C42.0858 32.5992 38.9211 35.7639 35.0172 35.7639C31.1132 35.7639 27.9485 32.5992 27.9485 28.6953C27.9485 24.7913 31.1132 21.6266 35.0172 21.6266C38.9211 21.6266 42.0858 24.7913 42.0858 28.6953Z" fill="white"/>
<path d="M59.3648 28.6953C59.3648 32.5992 56.2001 35.7639 52.2962 35.7639C48.3922 35.7639 45.2275 32.5992 45.2275 28.6953C45.2275 24.7913 48.3922 21.6266 52.2962 21.6266C56.2001 21.6266 59.3648 24.7913 59.3648 28.6953Z" fill="white"/>
<path d="M38.4206 27.6481C38.4206 28.9494 37.3657 30.0043 36.0644 30.0043C34.7631 30.0043 33.7082 28.9494 33.7082 27.6481C33.7082 26.3468 34.7631 25.2919 36.0644 25.2919C37.3657 25.2919 38.4206 26.3468 38.4206 27.6481Z" fill="#333333"/>
<path d="M54.6524 27.6481C54.6524 28.9494 53.5975 30.0043 52.2962 30.0043C50.9949 30.0043 49.9399 28.9494 49.9399 27.6481C49.9399 26.3468 50.9949 25.2919 52.2962 25.2919C53.5975 25.2919 54.6524 26.3468 54.6524 27.6481Z" fill="#333333"/>
<path fill-rule="evenodd" clip-rule="evenodd" d="M25.1679 31.5396C25.3086 31.563 25.5154 31.6362 25.6745 31.8352C25.9455 32.1739 25.8906 32.6682 25.5519 32.9391C25.4313 33.0356 25.291 33.0908 25.148 33.1065C25.1039 33.1313 25.044 33.167 24.9673 33.2161C24.7129 33.3788 24.3684 33.6265 24.0046 33.9043C23.6433 34.18 23.2763 34.4752 22.9794 34.7275C22.8308 34.8539 22.7035 34.9663 22.6051 35.058C22.5559 35.1039 22.5166 35.142 22.4869 35.1724C22.4721 35.1874 22.461 35.1992 22.453 35.208C22.4458 35.216 22.4427 35.2197 22.4427 35.2197C22.4427 35.2197 22.4428 35.2196 22.4429 35.2195C22.172 35.5582 21.6777 35.6131 21.339 35.3421C21.0003 35.0712 20.9454 34.5769 21.2163 34.2382C21.3655 34.0517 21.6659 33.7824 21.9621 33.5307C22.2822 33.2586 22.6708 32.9462 23.0515 32.6556C23.4296 32.367 23.8133 32.0896 24.1208 31.8929C24.2699 31.7975 24.427 31.7042 24.5681 31.6399C24.6326 31.6106 24.7394 31.5657 24.8635 31.5432C24.9253 31.532 25.0357 31.5178 25.1679 31.5396ZM25.2274 33.066C25.2273 33.0661 25.2256 33.0668 25.2222 33.0681C25.2258 33.0665 25.2274 33.0659 25.2274 33.066Z" fill="#333333"/>
<path fill-rule="evenodd" clip-rule="evenodd" d="M27.2955 32.9532C27.5898 33.272 27.5699 33.7689 27.2511 34.0631C26.7395 34.5353 26.2576 35.0293 25.8402 35.551C25.5692 35.8897 25.075 35.9446 24.7363 35.6737C24.3975 35.4027 24.3426 34.9084 24.6136 34.5697C25.0952 33.9677 25.6368 33.4155 26.1857 32.9089C26.5044 32.6146 27.0013 32.6345 27.2955 32.9532Z" fill="#333333"/>
<path fill-rule="evenodd" clip-rule="evenodd" d="M62.9181 32.3646C63.2171 32.6789 63.2047 33.176 62.8904 33.475C62.1524 34.177 61.2911 34.7175 60.5004 35.2137C60.2289 35.384 59.9658 35.5492 59.7188 35.7138C59.3579 35.9544 58.8703 35.8569 58.6297 35.496C58.3891 35.135 58.4866 34.6474 58.8475 34.4068C59.1736 34.1894 59.4846 33.9942 59.7826 33.8071C60.5285 33.3388 61.1928 32.9218 61.8077 32.3368C62.122 32.0379 62.6192 32.0503 62.9181 32.3646Z" fill="#333333"/>
<path fill-rule="evenodd" clip-rule="evenodd" d="M65.6998 33.7907C65.8975 34.1768 65.7449 34.65 65.3588 34.8478C65.1577 34.9508 64.9445 35.05 64.7429 35.1438L64.736 35.147C64.5274 35.2441 64.3287 35.3367 64.1367 35.4342C63.7452 35.6331 63.4425 35.8234 63.236 36.0299C62.9293 36.3366 62.432 36.3366 62.1252 36.0299C61.8185 35.7232 61.8185 35.2259 62.1252 34.9192C62.5105 34.5339 62.9923 34.2537 63.4252 34.0337C63.6434 33.9229 63.8647 33.8199 64.0676 33.7255L64.0732 33.7229C64.2825 33.6255 64.4705 33.5379 64.6427 33.4497C65.0288 33.2519 65.502 33.4046 65.6998 33.7907Z" fill="#333333"/>
</svg>
