<svg width="72" height="72" viewBox="0 0 72 72" fill="none" xmlns="http://www.w3.org/2000/svg">
<circle cx="36" cy="36" r="36" fill="#FF4848"/>
<path d="M27.8343 32.6596C27.8343 36.1335 25.0181 38.9496 21.5443 38.9496C18.0704 38.9496 15.2543 36.1335 15.2543 32.6596C15.2543 29.1858 18.0704 26.3696 21.5443 26.3696C25.0181 26.3696 27.8343 29.1858 27.8343 32.6596Z" fill="white"/>
<path d="M43.2098 32.6596C43.2098 36.1335 40.3937 38.9496 36.9198 38.9496C33.4459 38.9496 30.6298 36.1335 30.6298 32.6596C30.6298 29.1858 33.4459 26.3696 36.9198 26.3696C40.3937 26.3696 43.2098 29.1858 43.2098 32.6596Z" fill="white"/>
<path d="M25.9705 32.6597C25.9705 34.5897 24.406 36.1542 22.4761 36.1542C20.5462 36.1542 18.9817 34.5897 18.9817 32.6597C18.9817 30.7298 20.5462 29.1653 22.4761 29.1653C24.406 29.1653 25.9705 30.7298 25.9705 32.6597Z" fill="#333333"/>
<path d="M40.8802 32.6597C40.8802 34.5897 39.3157 36.1542 37.3857 36.1542C35.4558 36.1542 33.8913 34.5897 33.8913 32.6597C33.8913 30.7298 35.4558 29.1653 37.3857 29.1653C39.3157 29.1653 40.8802 30.7298 40.8802 32.6597Z" fill="#333333"/>
<path fill-rule="evenodd" clip-rule="evenodd" d="M20.6496 22.8075C20.5879 22.4846 20.304 22.2406 19.9631 22.2406C19.5771 22.2406 19.2642 22.5535 19.2642 22.9395C19.2642 23.5193 19.7071 23.8579 19.9062 23.9954C20.0298 24.0807 20.1585 24.1535 20.2539 24.2071C20.3642 24.2692 20.4208 24.3011 20.4588 24.3272C21.6962 25.1779 22.8729 25.9534 24.4564 26.3702C24.8297 26.4684 25.2119 26.2454 25.3101 25.8721C25.4084 25.4989 25.1854 25.1166 24.8121 25.0184C23.4859 24.6694 22.4846 24.0237 21.2507 23.1754C21.1578 23.1115 21.0467 23.0492 20.9646 23.0032C20.9558 22.9982 20.9474 22.9935 20.9393 22.989C20.8411 22.9337 20.7645 22.8894 20.7004 22.8451C20.6788 22.8302 20.6622 22.8177 20.6496 22.8075Z" fill="#333333"/>
<path fill-rule="evenodd" clip-rule="evenodd" d="M37.8356 24.0641C38.0082 24.4093 37.8682 24.8291 37.523 25.0018C36.847 25.3398 36.0767 25.5497 35.3994 25.7145C35.0098 25.8092 34.6365 25.916 34.2479 26.0271C34.021 26.092 33.789 26.1584 33.5455 26.2247C32.9076 26.3984 32.2332 26.5589 31.5309 26.6291C31.1468 26.6675 30.8043 26.3873 30.7659 26.0032C30.7275 25.6192 31.0077 25.2767 31.3918 25.2383C31.9783 25.1796 32.5647 25.0431 33.1782 24.876C33.385 24.8197 33.6009 24.7581 33.8215 24.6951C34.2311 24.5781 34.6567 24.4566 35.069 24.3563C35.7368 24.1939 36.3738 24.0136 36.8979 23.7515C37.2431 23.5789 37.6629 23.7189 37.8356 24.0641Z" fill="#333333"/>
<path fill-rule="evenodd" clip-rule="evenodd" d="M34.0793 41.5574C33.5693 41.5927 33.0584 41.6281 32.5465 41.6626C28.2997 41.949 24.3975 42.2605 20.6055 43.9399C20.2525 44.0962 19.8397 43.9368 19.6834 43.5839C19.5272 43.2309 19.6866 42.8181 20.0395 42.6618C24.0878 40.869 28.2278 40.5529 32.4524 40.268C32.9597 40.2338 33.4676 40.1986 33.9761 40.1633C37.1102 39.9461 40.2664 39.7274 43.4387 39.7274C43.8247 39.7274 44.1376 40.0403 44.1376 40.4263C44.1376 40.8123 43.8247 41.1252 43.4387 41.1252C40.3187 41.1252 37.2161 41.3401 34.0793 41.5574Z" fill="#333333"/>
<path fill-rule="evenodd" clip-rule="evenodd" d="M54.156 19.2577C54.2711 19.4878 54.1778 19.7677 53.9476 19.8828C53.3998 20.1567 53.005 20.601 52.5378 21.1268C52.5198 21.1471 52.5016 21.1675 52.4834 21.1881C52.0117 21.7184 51.4614 22.3216 50.6397 22.6529C49.2272 23.2225 47.7424 23.0424 46.4115 22.6622C45.9385 22.527 45.57 22.3075 45.2489 22.1025C45.1982 22.0701 45.1491 22.0384 45.1011 22.0074C44.8361 21.8364 44.6067 21.6883 44.3332 21.5711C44.0966 21.4697 43.9871 21.1958 44.0885 20.9593C44.1898 20.7228 44.4637 20.6132 44.7002 20.7146C45.0523 20.8655 45.355 21.0614 45.6187 21.2322C45.6637 21.2613 45.7076 21.2897 45.7504 21.317C46.0541 21.511 46.3294 21.6696 46.6675 21.7662C47.9153 22.1227 49.1592 22.2451 50.2912 21.7887C50.887 21.5485 51.3087 21.1067 51.7871 20.5688C51.8154 20.537 51.8439 20.5048 51.8727 20.4722C52.3114 19.977 52.817 19.4062 53.5309 19.0493C53.761 18.9342 54.0409 19.0275 54.156 19.2577Z" fill="#333333"/>
<path fill-rule="evenodd" clip-rule="evenodd" d="M57.1989 21.9567C57.2124 22.2137 57.015 22.433 56.7581 22.4465C56.7258 22.4482 56.6931 22.4499 56.6599 22.4516C56.0011 22.4858 55.1752 22.5287 54.492 22.7438C54.1375 22.8553 53.8593 23.0026 53.6709 23.1875C53.4936 23.3615 53.3788 23.5841 53.3664 23.9024C53.3564 24.1605 53.4313 24.5296 53.5905 24.8221C53.7522 25.119 53.9326 25.2282 54.0986 25.2282C54.3559 25.2282 54.5645 25.4368 54.5645 25.6942C54.5645 25.9515 54.3559 26.1601 54.0986 26.1601C53.442 26.1601 53.0103 25.7052 52.7721 25.2676C52.5314 24.8256 52.4188 24.2897 52.4353 23.8661C52.4571 23.3054 52.6749 22.8593 53.0182 22.5224C53.3503 22.1965 53.7806 21.9907 54.2122 21.8549C55.0137 21.6026 55.9498 21.5548 56.5872 21.5222C56.6292 21.5201 56.6698 21.518 56.7091 21.5159C56.9661 21.5024 57.1853 21.6997 57.1989 21.9567Z" fill="#333333"/>
<path fill-rule="evenodd" clip-rule="evenodd" d="M49.717 25.545C48.942 24.8639 47.7172 24.8448 46.6138 25.1994C46.3689 25.2782 46.1064 25.1434 46.0277 24.8984C45.949 24.6534 46.0837 24.391 46.3287 24.3123C47.5605 23.9164 49.1941 23.8449 50.3321 24.845C51.067 25.4908 51.3487 26.0434 51.6703 26.8772C51.697 26.9463 51.7411 27.0057 51.8313 27.1057C51.8398 27.1151 51.8492 27.1254 51.8594 27.1365C51.9407 27.2251 52.0702 27.3662 52.158 27.5418C52.2731 27.772 52.1798 28.0518 51.9497 28.1669C51.7195 28.282 51.4396 28.1887 51.3246 27.9586C51.2981 27.9056 51.2597 27.8631 51.1601 27.7528C51.1535 27.7455 51.1466 27.7379 51.1395 27.73C51.0383 27.6179 50.8931 27.4516 50.8009 27.2125C50.5085 26.4546 50.2964 26.0542 49.717 25.545Z" fill="#333333"/>
</svg>
