<svg width="72" height="72" viewBox="0 0 72 72" fill="none" xmlns="http://www.w3.org/2000/svg">
<path fill-rule="evenodd" clip-rule="evenodd" d="M21.1765 0C26.948 0 32.1803 2.40315 36 6.30052C39.8197 2.40315 45.052 0 50.8235 0C62.519 0 72 9.86802 72 22.0408C72 27.3381 70.2045 32.1989 67.2124 36C70.2045 39.801 72 44.6619 72 49.9592C72 62.132 62.519 72 50.8235 72C45.052 72 39.8197 69.5968 36 65.6995C32.1803 69.5968 26.948 72 21.1765 72C9.48103 72 0 62.132 0 49.9592C0 44.6619 1.7955 39.801 4.78763 36C1.7955 32.1989 0 27.3381 0 22.0408C0 9.86802 9.48103 0 21.1765 0Z" fill="#FDF568"/>
<circle cx="27.125" cy="27.125" r="7.125" fill="white"/>
<path d="M51.6667 27.125C51.6667 31.06 48.4767 34.25 44.5417 34.25C40.6067 34.25 37.4167 31.06 37.4167 27.125C37.4167 23.19 40.6067 20 44.5417 20C48.4767 20 51.6667 23.19 51.6667 27.125Z" fill="white"/>
<path d="M37.4167 34.25C37.4167 35.1245 36.4715 35.8333 35.3056 35.8333C34.1396 35.8333 33.1945 35.1245 33.1945 34.25" stroke="#333333" stroke-width="1.5" stroke-linecap="round"/>
<path d="M26.1566 22.6389L32.4757 27.9308L24.2223 29.8578" stroke="#333333" stroke-width="1.5"/>
<path d="M46.2188 22.6389L39.8996 27.9308L48.1531 29.8578" stroke="#333333" stroke-width="1.5"/>
<path d="M24.9492 25.8323L32.3321 27.8105" stroke="#333333" stroke-width="1.5"/>
<path d="M47.4261 25.8323L40.0432 27.8105" stroke="#333333" stroke-width="1.5"/>
</svg>
