<svg width="66" height="80" viewBox="0 0 66 80" fill="none" xmlns="http://www.w3.org/2000/svg">
<path fill-rule="evenodd" clip-rule="evenodd" d="M65.0509 16.2627C65.0509 20.6497 61.5768 24.631 55.9291 27.5563C61.5768 30.4816 65.0509 34.4629 65.0509 38.8499C65.0509 43.7071 60.7921 48.067 54.0396 51.0469C60.7921 54.0268 65.0509 58.3867 65.0509 63.244C65.0509 72.2256 50.4888 79.5067 32.5255 79.5067C14.5621 79.5067 0 72.2256 0 63.244C0 58.3867 4.25884 54.0268 11.0113 51.0469C4.25884 48.067 0 43.7071 0 38.8499C0 34.4629 3.47414 30.4816 9.12184 27.5563C3.47414 24.631 0 20.6497 0 16.2627C0 7.28107 14.5621 0 32.5255 0C50.4888 0 65.0509 7.28107 65.0509 16.2627Z" fill="#149CFF"/>
<ellipse cx="29.5" cy="13" rx="1.5" ry="2" fill="black"/>
<ellipse cx="35.5" cy="13" rx="1.5" ry="2" fill="black"/>
</svg>
