<svg width="83" height="73" viewBox="0 0 83 73" fill="none" xmlns="http://www.w3.org/2000/svg">
<path d="M38.3792 1.80474C39.7652 -0.601576 43.2348 -0.60158 44.6208 1.80473L82.5132 67.594C83.8976 69.9976 82.1644 73 79.3924 73H3.60756C0.835647 73 -0.897591 69.9976 0.486781 67.594L38.3792 1.80474Z" fill="#FFB039"/>
<path d="M41.7547 48.8962C41.7547 52.1526 39.1149 54.7924 35.8585 54.7924C32.6021 54.7924 29.9623 52.1526 29.9623 48.8962C29.9623 45.6398 32.6021 43 35.8585 43C39.1149 43 41.7547 45.6398 41.7547 48.8962Z" fill="white"/>
<path d="M55.4339 48.8962C55.4339 52.1526 52.794 54.7924 49.5376 54.7924C46.2812 54.7924 43.6414 52.1526 43.6414 48.8962C43.6414 45.6398 46.2812 43 49.5376 43C52.794 43 55.4339 45.6398 55.4339 48.8962Z" fill="white"/>
<path d="M38.4529 49.132C38.4529 50.4346 37.3969 51.4905 36.0944 51.4905C34.7918 51.4905 33.7359 50.4346 33.7359 49.132C33.7359 47.8295 34.7918 46.7736 36.0944 46.7736C37.3969 46.7736 38.4529 47.8295 38.4529 49.132Z" fill="#333333"/>
<path d="M50.717 49.132C50.717 50.4346 49.661 51.4905 48.3585 51.4905C47.0559 51.4905 46 50.4346 46 49.132C46 47.8295 47.0559 46.7736 48.3585 46.7736C49.661 46.7736 50.717 47.8295 50.717 49.132Z" fill="#333333"/>
<path fill-rule="evenodd" clip-rule="evenodd" d="M36.0944 56.3254C36.2898 56.3254 36.4481 56.4838 36.4481 56.6792C36.4481 57.8493 37.0638 58.9324 38.1061 59.7342C39.1488 60.5363 40.6044 61.0424 42.2264 61.0424C43.8485 61.0424 45.3041 60.5363 46.3468 59.7342C47.3891 58.9324 48.0047 57.8493 48.0047 56.6792C48.0047 56.4838 48.1631 56.3254 48.3585 56.3254C48.5539 56.3254 48.7123 56.4838 48.7123 56.6792C48.7123 58.1143 47.9552 59.3896 46.7782 60.295C45.6015 61.2002 43.991 61.75 42.2264 61.75C40.4619 61.75 38.8514 61.2002 37.6747 60.295C36.4977 59.3896 35.7406 58.1143 35.7406 56.6792C35.7406 56.4838 35.899 56.3254 36.0944 56.3254Z" fill="#333333"/>
<path d="M29.0189 55.5C29.0189 57.7144 27.2238 59.5095 25.0094 59.5095C22.7951 59.5095 21 57.7144 21 55.5C21 53.2857 22.7951 51.4906 25.0094 51.4906C27.2238 51.4906 29.0189 53.2857 29.0189 55.5Z" fill="#FFBEDD"/>
<path d="M63.4529 55.5C63.4529 57.7144 61.6578 59.5095 59.4435 59.5095C57.2291 59.5095 55.434 57.7144 55.434 55.5C55.434 53.2857 57.2291 51.4906 59.4435 51.4906C61.6578 51.4906 63.4529 53.2857 63.4529 55.5Z" fill="#FFBEDD"/>
</svg>
