<svg width="72" height="72" viewBox="0 0 72 72" fill="none" xmlns="http://www.w3.org/2000/svg">
<path d="M0 36C0 16.1177 16.1177 0 36 0V0C55.8823 0 72 16.1177 72 36V72H0V36Z" fill="#FFB039"/>
<path fill-rule="evenodd" clip-rule="evenodd" d="M33.4926 28.7936C33.7659 28.8152 33.97 29.0543 33.9484 29.3276C33.9203 29.6835 34.083 30.0585 34.4442 30.3767C34.8054 30.6951 35.3434 30.9316 35.9755 30.9815C36.6075 31.0314 37.1759 30.8824 37.5827 30.6247C37.9893 30.3671 38.209 30.0223 38.2371 29.6664C38.2587 29.3931 38.4977 29.189 38.771 29.2106C39.0443 29.2322 39.2484 29.4713 39.2268 29.7446C39.1685 30.4818 38.7192 31.08 38.114 31.4634C37.509 31.8466 36.7228 32.0364 35.8973 31.9712C35.0718 31.906 34.3251 31.5951 33.7878 31.1216C33.2503 30.6479 32.9005 29.9866 32.9587 29.2494C32.9803 28.9761 33.2194 28.772 33.4926 28.7936Z" fill="#333333"/>
<path fill-rule="evenodd" clip-rule="evenodd" d="M19.596 24.0599C19.5929 23.7764 19.8202 23.5442 20.1037 23.5411L31.7384 23.4157C32.0219 23.4126 32.2542 23.64 32.2572 23.9235C32.2603 24.2069 32.033 24.4392 31.7495 24.4423L20.1148 24.5677C19.8313 24.5707 19.599 24.3434 19.596 24.0599Z" fill="#333333"/>
<path fill-rule="evenodd" clip-rule="evenodd" d="M40.3459 24.4807C40.4133 24.2053 40.6912 24.0367 40.9666 24.1041L52.2682 26.8709C52.5435 26.9384 52.7121 27.2162 52.6447 27.4916C52.5773 27.767 52.2994 27.9356 52.024 27.8681L40.7224 25.1013C40.4471 25.0339 40.2785 24.756 40.3459 24.4807Z" fill="#333333"/>
<path fill-rule="evenodd" clip-rule="evenodd" d="M19.6144 25.7555C19.6197 25.4721 19.8537 25.2466 20.1372 25.2519L31.7756 25.4687C32.059 25.4739 32.2845 25.708 32.2793 25.9915C32.274 26.2749 32.0399 26.5004 31.7565 26.4951L20.1181 26.2783C19.8346 26.2731 19.6091 26.039 19.6144 25.7555Z" fill="#333333"/>
<path fill-rule="evenodd" clip-rule="evenodd" d="M39.9429 26.128C40.0184 25.8547 40.3011 25.6944 40.5744 25.7699L51.7946 28.8691C52.0679 28.9446 52.2282 29.2273 52.1528 29.5005C52.0773 29.7738 51.7946 29.9341 51.5213 29.8587L40.301 26.7594C40.0278 26.684 39.8674 26.4012 39.9429 26.128Z" fill="#333333"/>
<path fill-rule="evenodd" clip-rule="evenodd" d="M20.6342 25.0915C20.6223 24.8082 20.8422 24.569 21.1255 24.5571L32.0721 24.0968C32.3554 24.0849 32.5946 24.3049 32.6065 24.5881C32.6184 24.8714 32.3985 25.1107 32.1152 25.1226L21.1686 25.5828C20.8854 25.5947 20.6461 25.3747 20.6342 25.0915Z" fill="#333333"/>
<path fill-rule="evenodd" clip-rule="evenodd" d="M41.0955 25.7376C41.1543 25.4603 41.4267 25.2831 41.7041 25.3419L52.4223 27.6136C52.6996 27.6724 52.8768 27.9448 52.818 28.2222C52.7592 28.4995 52.4867 28.6767 52.2094 28.6179L41.4912 26.3462C41.2139 26.2875 41.0367 26.015 41.0955 25.7376Z" fill="#333333"/>
<path fill-rule="evenodd" clip-rule="evenodd" d="M19.5742 22.0216C19.5628 21.7383 19.7832 21.4994 20.0665 21.488L31.6975 21.0204C31.9808 21.0091 32.2196 21.2295 32.231 21.5127C32.2424 21.796 32.022 22.0349 31.7387 22.0463L20.1077 22.5139C19.8244 22.5253 19.5856 22.3049 19.5742 22.0216Z" fill="#333333"/>
<path fill-rule="evenodd" clip-rule="evenodd" d="M40.831 22.5009C40.8903 22.2236 41.1631 22.047 41.4403 22.1063L52.8233 24.5407C53.1006 24.6 53.2772 24.8728 53.2179 25.15C53.1587 25.4272 52.8858 25.6039 52.6086 25.5446L41.2256 23.1102C40.9484 23.0509 40.7717 22.7781 40.831 22.5009Z" fill="#333333"/>
<path fill-rule="evenodd" clip-rule="evenodd" d="M20.6078 22.6632C20.6138 22.3798 20.8485 22.155 21.132 22.161L31.7438 22.3889C32.0272 22.395 32.2521 22.6297 32.246 22.9131C32.2399 23.1966 32.0052 23.4214 31.7217 23.4153L21.1099 23.1875C20.8265 23.1814 20.6017 22.9467 20.6078 22.6632Z" fill="#333333"/>
<path fill-rule="evenodd" clip-rule="evenodd" d="M41.6727 23.379C41.749 23.106 42.0321 22.9465 42.3052 23.0227L52.5282 25.8778C52.8013 25.9541 52.9608 26.2372 52.8846 26.5103C52.8083 26.7834 52.5251 26.9429 52.2521 26.8666L42.029 24.0115C41.756 23.9353 41.5965 23.6521 41.6727 23.379Z" fill="#333333"/>
<path d="M15.865 28.3991C15.9226 27.6703 16.56 27.1261 17.2888 27.1837L21.2476 27.4965C21.9764 27.5541 22.5205 28.1915 22.4629 28.9203C22.4054 29.6491 21.7679 30.1932 21.0391 30.1357L17.0803 29.8229C16.3515 29.7653 15.8074 29.1278 15.865 28.3991Z" fill="#FFBEDD"/>
<path d="M48.5753 31.4355C48.715 30.7179 49.41 30.2495 50.1276 30.3892L54.0255 31.1483C54.7431 31.288 55.2115 31.983 55.0718 32.7006C54.9321 33.4182 54.2371 33.8866 53.5195 33.7469L49.6216 32.9878C48.904 32.8481 48.4356 32.1531 48.5753 31.4355Z" fill="#FFBEDD"/>
<path fill-rule="evenodd" clip-rule="evenodd" d="M13.4404 14.327C16.8351 10.8218 20.415 8.21547 22.7069 6.87396C23.1791 6.59757 23.7943 6.7325 24.081 7.17533C24.3678 7.61816 24.2175 8.2012 23.7453 8.47759C21.6119 9.72634 18.1768 12.2194 14.9087 15.5939C11.6385 18.9706 8.58878 23.175 7.13913 27.8423C6.98305 28.3448 6.42693 28.6376 5.89699 28.4962C5.36705 28.3549 5.06398 27.8329 5.22006 27.3304C6.78693 22.2858 10.0478 17.8301 13.4404 14.327Z" fill="#F1F1F1"/>
<path d="M29.7658 5.69144C29.7658 6.07332 29.1466 6.38289 28.3829 6.38289C27.6191 6.38289 27 6.07332 27 5.69144C27 5.30957 27.6191 5 28.3829 5C29.1466 5 29.7658 5.30957 29.7658 5.69144Z" fill="white"/>
</svg>
