<svg width="72" height="72" viewBox="0 0 72 72" fill="none" xmlns="http://www.w3.org/2000/svg">
<path fill-rule="evenodd" clip-rule="evenodd" d="M21.1765 0C26.948 0 32.1803 2.40315 36 6.30052C39.8197 2.40315 45.052 0 50.8235 0C62.519 0 72 9.86802 72 22.0408C72 27.3381 70.2045 32.1989 67.2124 36C70.2045 39.801 72 44.6619 72 49.9592C72 62.132 62.519 72 50.8235 72C45.052 72 39.8197 69.5968 36 65.6995C32.1803 69.5968 26.948 72 21.1765 72C9.48103 72 0 62.132 0 49.9592C0 44.6619 1.7955 39.801 4.78763 36C1.7955 32.1989 0 27.3381 0 22.0408C0 9.86802 9.48103 0 21.1765 0Z" fill="#39E492"/>
<path fill-rule="evenodd" clip-rule="evenodd" d="M33.5 33.8971C33.6705 33.8971 33.8088 34.0354 33.8088 34.2059C33.8088 34.428 33.9281 34.6527 34.1677 34.8323C34.4073 35.0121 34.7526 35.1324 35.147 35.1324C35.5415 35.1324 35.8867 35.0121 36.1264 34.8323C36.366 34.6527 36.4853 34.428 36.4853 34.2059C36.4853 34.0354 36.6235 33.8971 36.7941 33.8971C36.9647 33.8971 37.1029 34.0354 37.1029 34.2059C37.1029 34.666 36.8535 35.059 36.497 35.3265C36.1405 35.5938 35.6622 35.75 35.147 35.75C34.6319 35.75 34.1536 35.5938 33.7971 35.3265C33.4405 35.059 33.1912 34.666 33.1912 34.2059C33.1912 34.0354 33.3294 33.8971 33.5 33.8971Z" fill="#333333"/>
<path fill-rule="evenodd" clip-rule="evenodd" d="M23.6176 27C23.9588 27 24.2353 27.2765 24.2353 27.6176C24.2353 28.403 24.6583 29.1611 25.4355 29.744C26.2128 30.327 27.3151 30.7059 28.5588 30.7059C29.8026 30.7059 30.9048 30.327 31.6822 29.744C32.4594 29.1611 32.8824 28.403 32.8824 27.6176C32.8824 27.2765 33.1589 27 33.5 27C33.8411 27 34.1176 27.2765 34.1176 27.6176C34.1176 28.879 33.4345 29.9738 32.4234 30.7322C31.4124 31.4905 30.044 31.9412 28.5588 31.9412C27.0736 31.9412 25.7053 31.4905 24.6943 30.7322C23.6831 29.9738 23 28.879 23 27.6176C23 27.2765 23.2765 27 23.6176 27Z" fill="#333333"/>
<path fill-rule="evenodd" clip-rule="evenodd" d="M38.0294 27.4117C38.3705 27.4117 38.647 27.6883 38.647 28.0294C38.647 28.8147 39.07 29.5728 39.8472 30.1557C40.6246 30.7388 41.7268 31.1176 42.9706 31.1176C44.2143 31.1176 45.3165 30.7388 46.0939 30.1557C46.8711 29.5728 47.2941 28.8147 47.2941 28.0294C47.2941 27.6883 47.5706 27.4117 47.9117 27.4117C48.2529 27.4117 48.5294 27.6883 48.5294 28.0294C48.5294 29.2907 47.8463 30.3856 46.8351 31.144C45.8241 31.9022 44.4558 32.3529 42.9706 32.3529C41.4854 32.3529 40.117 31.9022 39.106 31.144C38.0949 30.3856 37.4117 29.2907 37.4117 28.0294C37.4117 27.6883 37.6883 27.4117 38.0294 27.4117Z" fill="#333333"/>
</svg>
