<svg width="72" height="72" viewBox="0 0 72 72" fill="none" xmlns="http://www.w3.org/2000/svg">
<circle cx="36" cy="36" r="36" fill="#39E492"/>
<path d="M32.4286 23.7143C32.4286 27.9748 28.9748 31.4286 24.7143 31.4286C20.4538 31.4286 17 27.9748 17 23.7143C17 19.4538 20.4538 16 24.7143 16C28.9748 16 32.4286 19.4538 32.4286 23.7143Z" fill="white"/>
<path d="M51.2857 23.7143C51.2857 27.9748 47.8319 31.4286 43.5714 31.4286C39.3109 31.4286 35.8571 27.9748 35.8571 23.7143C35.8571 19.4538 39.3109 16 43.5714 16C47.8319 16 51.2857 19.4538 51.2857 23.7143Z" fill="white"/>
<path d="M29 23.7143C29 26.0812 27.0812 28 24.7143 28C22.3474 28 20.4286 26.0812 20.4286 23.7143C20.4286 21.3474 22.3474 19.4286 24.7143 19.4286C27.0812 19.4286 29 21.3474 29 23.7143Z" fill="#333333"/>
<path d="M47.8571 23.7143C47.8571 26.0812 45.9384 28 43.5714 28C41.2045 28 39.2857 26.0812 39.2857 23.7143C39.2857 21.3474 41.2045 19.4286 43.5714 19.4286C45.9384 19.4286 47.8571 21.3474 47.8571 23.7143Z" fill="#333333"/>
<path d="M25 22C25 22.789 24.3604 23.4286 23.5715 23.4286C22.7825 23.4286 22.1429 22.789 22.1429 22C22.1429 21.211 22.7825 20.5714 23.5715 20.5714C24.3604 20.5714 25 21.211 25 22Z" fill="white"/>
<path d="M27.8571 26.5714C27.8571 27.3604 27.2175 28 26.4286 28C25.6396 28 25 27.3604 25 26.5714C25 25.7824 25.6396 25.1428 26.4286 25.1428C27.2175 25.1428 27.8571 25.7824 27.8571 26.5714Z" fill="white"/>
<path d="M43.2857 22C43.2857 22.789 42.6461 23.4286 41.8572 23.4286C41.0682 23.4286 40.4286 22.789 40.4286 22C40.4286 21.211 41.0682 20.5714 41.8572 20.5714C42.6461 20.5714 43.2857 21.211 43.2857 22Z" fill="white"/>
<path d="M46.7143 26.5714C46.7143 27.3604 46.0747 28 45.2857 28C44.4967 28 43.8571 27.3604 43.8571 26.5714C43.8571 25.7824 44.4967 25.1428 45.2857 25.1428C46.0747 25.1428 46.7143 25.7824 46.7143 26.5714Z" fill="white"/>
<path d="M38.1429 31.4286C38.1429 32.0289 38.0246 32.6234 37.7949 33.178C37.5651 33.7326 37.2284 34.2366 36.8039 34.6611C36.3794 35.0856 35.8755 35.4223 35.3208 35.652C34.7662 35.8818 34.1718 36 33.5714 36C32.9711 36 32.3766 35.8818 31.822 35.652C31.2674 35.4223 30.7634 35.0856 30.3389 34.6611C29.9144 34.2366 29.5777 33.7326 29.348 33.178C29.1182 32.6234 29 32.0289 29 31.4286L33.5714 31.4286H38.1429Z" fill="#FFBEDD"/>
<path fill-rule="evenodd" clip-rule="evenodd" d="M37.2669 32.9593C37.3946 32.6511 37.483 32.3288 37.5304 32L29.6125 32C29.6599 32.3288 29.7482 32.6511 29.8759 32.9593C30.0769 33.4446 30.3716 33.8856 30.743 34.257C31.1144 34.6285 31.5554 34.9231 32.0407 35.1241C32.526 35.3251 33.0461 35.4286 33.5714 35.4286C34.0967 35.4286 34.6169 35.3251 35.1022 35.1241C35.5875 34.9231 36.0284 34.6285 36.3999 34.257C36.7713 33.8856 37.0659 33.4446 37.2669 32.9593ZM29.0359 32C29.012 31.8109 29 31.62 29 31.4286L38.1429 31.4286C38.1429 31.62 38.1308 31.8109 38.107 32C38.0561 32.404 37.9514 32.8002 37.7949 33.178C37.5651 33.7326 37.2284 34.2366 36.8039 34.6611C36.3794 35.0856 35.8755 35.4223 35.3208 35.652C34.7662 35.8818 34.1718 36 33.5714 36C32.9711 36 32.3766 35.8818 31.822 35.652C31.2674 35.4223 30.7634 35.0856 30.3389 34.6611C29.9144 34.2366 29.5777 33.7326 29.348 33.178C29.1915 32.8002 29.0868 32.404 29.0359 32Z" fill="#333333"/>
</svg>
