<svg width="72" height="72" viewBox="0 0 72 72" fill="none" xmlns="http://www.w3.org/2000/svg">
<circle cx="36" cy="36" r="36" fill="#FF4848"/>
<path d="M26.02 29.75C26.02 34.1738 22.4338 37.76 18.01 37.76C13.5862 37.76 10 34.1738 10 29.75C10 25.3262 13.5862 21.74 18.01 21.74C22.4338 21.74 26.02 25.3262 26.02 29.75Z" fill="white"/>
<path d="M45.6001 29.75C45.6001 34.1738 42.0138 37.76 37.59 37.76C33.1662 37.76 29.58 34.1738 29.58 29.75C29.58 25.3262 33.1662 21.74 37.59 21.74C42.0138 21.74 45.6001 25.3262 45.6001 29.75Z" fill="white"/>
<path d="M21.8667 30.0466C21.8667 32.0127 20.2728 33.6066 18.3067 33.6066C16.3406 33.6066 14.7467 32.0127 14.7467 30.0466C14.7467 28.0804 16.3406 26.4866 18.3067 26.4866C20.2728 26.4866 21.8667 28.0804 21.8667 30.0466Z" fill="#333333"/>
<path d="M40.8534 30.0466C40.8534 32.0127 39.2595 33.6066 37.2934 33.6066C35.3273 33.6066 33.7334 32.0127 33.7334 30.0466C33.7334 28.0804 35.3273 26.4866 37.2934 26.4866C39.2595 26.4866 40.8534 28.0804 40.8534 30.0466Z" fill="#333333"/>
<path d="M20.68 30.0467C20.68 31.3574 19.6174 32.42 18.3067 32.42C16.9959 32.42 15.9333 31.3574 15.9333 30.0467C15.9333 28.7359 16.9959 27.6733 18.3067 27.6733C19.6174 27.6733 20.68 28.7359 20.68 30.0467Z" fill="white"/>
<path d="M39.6667 30.0467C39.6667 31.3574 38.6041 32.42 37.2934 32.42C35.9826 32.42 34.92 31.3574 34.92 30.0467C34.92 28.7359 35.9826 27.6733 37.2934 27.6733C38.6041 27.6733 39.6667 28.7359 39.6667 30.0467Z" fill="white"/>
<path d="M21.2734 37.7599C21.2734 36.4492 22.336 35.3866 23.6467 35.3866H28.9867C30.2975 35.3866 31.3601 36.4492 31.3601 37.7599V49.6266C31.3601 50.9374 30.2975 52 28.9867 52H23.6467C22.336 52 21.2734 50.9374 21.2734 49.6266V37.7599Z" fill="#FF9C9C"/>
<path fill-rule="evenodd" clip-rule="evenodd" d="M28.9867 36.5733H23.6467C22.9913 36.5733 22.46 37.1046 22.46 37.7599V49.6266C22.46 50.282 22.9913 50.8133 23.6467 50.8133H28.9867C29.6421 50.8133 30.1734 50.282 30.1734 49.6266V37.7599C30.1734 37.1046 29.6421 36.5733 28.9867 36.5733ZM23.6467 35.3866C22.336 35.3866 21.2734 36.4492 21.2734 37.7599V49.6266C21.2734 50.9374 22.336 52 23.6467 52H28.9867C30.2975 52 31.3601 50.9374 31.3601 49.6266V37.7599C31.3601 36.4492 30.2975 35.3866 28.9867 35.3866H23.6467Z" fill="#333333"/>
<path fill-rule="evenodd" clip-rule="evenodd" d="M57.1711 26.0478C57.4737 26.1843 57.621 26.5717 57.4999 26.9131C57.2329 27.6659 57.1675 28.5961 57.1826 29.6243C57.1897 30.107 57.2138 30.5934 57.238 31.0813C57.2393 31.108 57.2406 31.1347 57.2419 31.1614C57.2671 31.6698 57.2915 32.1828 57.2915 32.664C57.2915 32.8541 57.2863 33.0558 57.281 33.2655C57.2676 33.7923 57.253 34.3687 57.3153 34.933C57.4049 35.7443 57.6196 36.1505 57.9204 36.2844C57.9711 36.3069 58.0196 36.3286 58.0663 36.3495C58.3082 36.4577 58.499 36.543 58.6639 36.6022C58.7225 36.6232 58.7694 36.6376 58.8063 36.6474C58.8183 36.5419 58.825 36.3754 58.813 36.1228C58.798 35.8096 58.7939 35.4809 58.7898 35.161C58.7895 35.1344 58.7892 35.1078 58.7888 35.0814C58.7843 34.7308 58.7788 34.3884 58.7601 34.0533C58.7222 33.3745 58.6323 32.7924 58.4289 32.3336C58.2831 32.0048 58.4013 31.605 58.6929 31.4405C58.9844 31.2761 59.339 31.4094 59.4848 31.7382C59.7954 32.4389 59.8974 33.2359 59.9383 33.9696C59.959 34.3408 59.9647 34.7129 59.9692 35.062C59.9695 35.0869 59.9699 35.1116 59.9702 35.1363C59.9743 35.4627 59.9782 35.7656 59.9918 36.0513C60.0128 36.4907 59.9979 36.8944 59.8951 37.2203C59.8405 37.3937 59.7537 37.5688 59.6156 37.7124C59.4738 37.86 59.308 37.9425 59.1416 37.9781C58.8429 38.042 58.5371 37.9537 58.3061 37.8709C58.0982 37.7963 57.8608 37.69 57.6206 37.5824C57.5761 37.5625 57.5315 37.5425 57.487 37.5227C56.5267 37.0953 56.2402 35.971 56.1438 35.0975C56.0693 34.4225 56.0884 33.6733 56.1024 33.1263C56.1069 32.9473 56.1109 32.79 56.1109 32.664C56.1109 32.2257 56.0886 31.7491 56.0632 31.2355C56.0618 31.2067 56.0604 31.1778 56.0589 31.1487C56.035 30.6667 56.0097 30.1561 56.0022 29.6462C55.9865 28.5751 56.0465 27.4258 56.4038 26.4186C56.5249 26.0773 56.8684 25.9113 57.1711 26.0478Z" fill="#333333"/>
<path fill-rule="evenodd" clip-rule="evenodd" d="M50.4691 14.1727C50.7721 14.4235 50.7994 14.8555 50.5301 15.1376C49.3041 16.422 48.5031 17.9249 48.4691 19.1396C48.4527 19.727 48.6142 20.2253 48.968 20.6263C49.326 21.0321 49.9385 21.4032 50.9492 21.6291C50.9623 21.632 51.0122 21.6389 51.1093 21.5863C51.2091 21.5322 51.3198 21.4332 51.4059 21.3024C51.4925 21.1709 51.5294 21.0454 51.5314 20.9566C51.5333 20.8791 51.5113 20.8476 51.4882 20.8261C51.2011 20.5588 51.0225 20.2642 50.8909 20.0064C50.8331 19.893 50.7803 19.7784 50.734 19.6779C50.7286 19.6661 50.7232 19.6545 50.718 19.6432C50.6656 19.5296 50.6202 19.433 50.5716 19.3425C50.3903 19.0048 50.5373 18.5943 50.8998 18.4254C51.2624 18.2566 51.7033 18.3935 51.8846 18.7311C51.9542 18.8608 52.0144 18.9901 52.0668 19.1036C52.0721 19.1151 52.0773 19.1264 52.0824 19.1375C52.1304 19.2415 52.1718 19.3314 52.2167 19.4195C52.3139 19.6098 52.4067 19.7482 52.5262 19.8595C53.2522 20.5355 53.0175 21.4701 52.6574 22.017C52.3025 22.556 51.5368 23.1662 50.6066 22.9583C49.3756 22.6832 48.4467 22.1889 47.8338 21.4942C47.2166 20.7947 46.9778 19.9576 47.0016 19.104C47.0482 17.4368 48.0907 15.6355 49.4329 14.2294C49.7022 13.9473 50.1661 13.9219 50.4691 14.1727Z" fill="#333333"/>
</svg>
