<svg width="72" height="72" viewBox="0 0 72 72" fill="none" xmlns="http://www.w3.org/2000/svg">
<path d="M0 36C0 16.1177 16.1177 0 36 0V0C55.8823 0 72 16.1177 72 36V72H0V36Z" fill="#FFB039"/>
<path d="M34.5854 26.3537C34.5854 30.415 31.293 33.7073 27.2317 33.7073C23.1704 33.7073 19.8781 30.415 19.8781 26.3537C19.8781 22.2923 23.1704 19 27.2317 19C31.293 19 34.5854 22.2923 34.5854 26.3537Z" fill="white"/>
<path d="M52.561 26.3537C52.561 30.415 49.2686 33.7073 45.2073 33.7073C41.146 33.7073 37.8536 30.415 37.8536 26.3537C37.8536 22.2923 41.146 19 45.2073 19C49.2686 19 52.561 22.2923 52.561 26.3537Z" fill="white"/>
<path fill-rule="evenodd" clip-rule="evenodd" d="M33.4959 33.2988C33.7216 33.2988 33.9045 33.4817 33.9045 33.7074C33.9045 34.0012 34.0623 34.2984 34.3792 34.5361C34.6963 34.7738 35.153 34.933 35.6748 34.933C36.1966 34.933 36.6533 34.7738 36.9704 34.5361C37.2873 34.2984 37.4451 34.0012 37.4451 33.7074C37.4451 33.4817 37.628 33.2988 37.8537 33.2988C38.0793 33.2988 38.2622 33.4817 38.2622 33.7074C38.2622 34.316 37.9323 34.8359 37.4606 35.1897C36.9891 35.5434 36.3563 35.75 35.6748 35.75C34.9933 35.75 34.3605 35.5434 33.889 35.1897C33.4173 34.8359 33.0874 34.316 33.0874 33.7074C33.0874 33.4817 33.2703 33.2988 33.4959 33.2988Z" fill="#333333"/>
<path fill-rule="evenodd" clip-rule="evenodd" d="M31.8648 26.9734L25.9699 22.0368L26.4944 21.4104L33.6435 27.3972L24.3287 29.5719L24.1429 28.7763L31.8648 26.9734Z" fill="#333333"/>
<path fill-rule="evenodd" clip-rule="evenodd" d="M41.3057 26.9734L47.2006 22.0368L46.676 21.4104L39.527 27.3972L48.8418 29.5719L49.0276 28.7763L41.3057 26.9734Z" fill="#333333"/>
<path fill-rule="evenodd" clip-rule="evenodd" d="M32.5001 27.4557L24.8803 25.414L25.0917 24.6248L32.7116 26.6665L32.5001 27.4557Z" fill="#333333"/>
<path fill-rule="evenodd" clip-rule="evenodd" d="M40.6704 27.4557L48.2902 25.414L48.0787 24.6248L40.4589 26.6665L40.6704 27.4557Z" fill="#333333"/>
</svg>
