<svg width="83" height="73" viewBox="0 0 83 73" fill="none" xmlns="http://www.w3.org/2000/svg">
<path d="M38.3792 1.80474C39.7652 -0.601576 43.2348 -0.60158 44.6208 1.80473L82.5132 67.594C83.8976 69.9976 82.1644 73 79.3924 73H3.60756C0.835647 73 -0.897591 69.9976 0.486781 67.594L38.3792 1.80474Z" fill="#149CFF"/>
<path d="M47.2588 49.8167C47.2588 51.1721 45.0612 52.2709 42.3503 52.2709C39.6394 52.2709 37.4418 51.1721 37.4418 49.8167C37.4418 48.4612 39.6394 47.3624 42.3503 47.3624C45.0612 47.3624 47.2588 48.4612 47.2588 49.8167Z" fill="#FF9C9C"/>
<path fill-rule="evenodd" clip-rule="evenodd" d="M45.5772 51.0643C46.4075 50.6491 46.7134 50.1765 46.7134 49.8167C46.7134 49.4568 46.4075 48.9842 45.5772 48.5691C44.7796 48.1702 43.6394 47.9078 42.3503 47.9078C41.0612 47.9078 39.921 48.1702 39.1234 48.5691C38.2931 48.9842 37.9872 49.4568 37.9872 49.8167C37.9872 50.1765 38.2931 50.6491 39.1234 51.0643C39.921 51.4631 41.0612 51.7255 42.3503 51.7255C43.6394 51.7255 44.7796 51.4631 45.5772 51.0643ZM42.3503 52.2709C45.0612 52.2709 47.2588 51.1721 47.2588 49.8167C47.2588 48.4612 45.0612 47.3624 42.3503 47.3624C39.6394 47.3624 37.4418 48.4612 37.4418 49.8167C37.4418 51.1721 39.6394 52.2709 42.3503 52.2709Z" fill="#333333"/>
<path d="M40.7141 44.6355C40.7141 47.0451 37.5398 48.9986 33.6241 48.9986C29.7084 48.9986 26.534 47.0451 26.534 44.6355C26.534 42.2258 29.7084 40.2723 33.6241 40.2723C37.5398 40.2723 40.7141 42.2258 40.7141 44.6355Z" fill="#868686"/>
<path d="M58.712 44.09C58.712 46.8009 55.5377 48.9985 51.6219 48.9985C47.7062 48.9985 44.5319 46.8009 44.5319 44.09C44.5319 41.3791 47.7062 39.1815 51.6219 39.1815C55.5377 39.1815 58.712 41.3791 58.712 44.09Z" fill="#868686"/>
<path d="M41.2595 42.1812C41.2595 45.0427 37.9631 47.3624 33.8968 47.3624C29.8304 47.3624 26.534 45.0427 26.534 42.1812C26.534 39.3197 29.8304 37 33.8968 37C37.9631 37 41.2595 39.3197 41.2595 42.1812Z" fill="white"/>
<path d="M37.9872 41.0904C37.9872 43.3495 36.1559 45.1808 33.8968 45.1808C31.6377 45.1808 29.8064 43.3495 29.8064 41.0904C29.8064 38.8313 31.6377 37 33.8968 37C36.1559 37 37.9872 38.8313 37.9872 41.0904Z" fill="#333333"/>
<path d="M59.2574 42.1812C59.2574 45.0427 55.961 47.3624 51.8946 47.3624C47.8283 47.3624 44.5319 45.0427 44.5319 42.1812C44.5319 39.3197 47.8283 37 51.8946 37C55.961 37 59.2574 39.3197 59.2574 42.1812Z" fill="white"/>
<path d="M55.4397 41.0904C55.4397 43.3495 53.6083 45.1808 51.3492 45.1808C49.0902 45.1808 47.2588 43.3495 47.2588 41.0904C47.2588 38.8313 49.0902 37 51.3492 37C53.6083 37 55.4397 38.8313 55.4397 41.0904Z" fill="#333333"/>
<path fill-rule="evenodd" clip-rule="evenodd" d="M20 50.2779C20 49.9767 20.2442 49.7325 20.5454 49.7325C21.7277 49.7325 22.7256 50.0702 23.6507 50.501C24.0807 50.7013 24.5028 50.9256 24.9168 51.1456C24.9448 51.1604 24.9727 51.1753 25.0006 51.1901C25.446 51.4266 25.8859 51.658 26.3467 51.8672C27.1926 52.251 28.0594 52.5552 28.9572 52.8702C29.1259 52.9294 29.2956 52.9889 29.4664 53.0495C29.5261 53.0706 29.5998 53.0934 29.6953 53.1228C29.7861 53.1507 29.8925 53.1835 29.9994 53.2204C30.1989 53.2894 30.4667 53.3938 30.6748 53.5603C30.8207 53.6771 30.9188 53.833 30.9774 53.9404C31.0419 54.0584 31.0917 54.18 31.1241 54.2772C31.2194 54.563 31.0649 54.8719 30.7792 54.9671C30.4934 55.0624 30.1846 54.9079 30.0893 54.6222C30.0746 54.578 30.0495 54.517 30.0201 54.4631C30.0058 54.4369 29.9935 54.4181 29.9848 54.4065C29.9843 54.4057 29.9837 54.405 29.9832 54.4044C29.9288 54.3648 29.8196 54.3124 29.6433 54.2515C29.5564 54.2215 29.467 54.1938 29.3741 54.1652L29.3637 54.162C29.2782 54.1356 29.1845 54.1068 29.1022 54.0776C28.9379 54.0194 28.7726 53.9614 28.6065 53.9032C27.7092 53.5885 26.7898 53.266 25.896 52.8605C25.4006 52.6357 24.9333 52.3894 24.489 52.1534C24.4631 52.1397 24.4373 52.126 24.4115 52.1123C23.9914 51.8891 23.5932 51.6775 23.1902 51.4898C22.3417 51.0947 21.5079 50.8233 20.5454 50.8233C20.2442 50.8233 20 50.5791 20 50.2779Z" fill="#333333"/>
<path fill-rule="evenodd" clip-rule="evenodd" d="M65.9966 48.2675C66.0227 48.5675 65.8006 48.832 65.5005 48.858C64.5319 48.9423 63.47 49.3491 62.4805 49.7477C61.9642 49.9556 61.2386 50.2657 60.5895 50.65C59.9125 51.0509 59.436 51.466 59.2726 51.8394C59.1492 52.1215 58.9292 52.4516 58.6921 52.7345C58.462 53.009 58.1588 53.3079 57.8444 53.4651C57.575 53.5998 57.2474 53.4906 57.1127 53.2212C56.978 52.9518 57.0872 52.6242 57.3566 52.4895C57.4676 52.4339 57.6545 52.2744 57.8561 52.0338C58.0508 51.8016 58.2043 51.5598 58.2733 51.4022C58.5864 50.6866 59.3393 50.1226 60.0338 49.7114C60.7563 49.2836 61.5444 48.9488 62.0729 48.7359C63.0401 48.3463 64.2497 47.8719 65.406 47.7714C65.7061 47.7453 65.9705 47.9674 65.9966 48.2675Z" fill="#333333"/>
</svg>
