<svg width="83" height="73" viewBox="0 0 83 73" fill="none" xmlns="http://www.w3.org/2000/svg">
<path d="M38.3792 1.80474C39.7652 -0.601575 43.2348 -0.60158 44.6208 1.80473L82.5132 67.594C83.8976 69.9976 82.1644 73 79.3924 73H3.60756C0.835647 73 -0.897591 69.9976 0.486781 67.594L38.3792 1.80474Z" fill="#39E492"/>
<path d="M41.3462 38.4615C41.3462 42.0301 38.4532 44.9231 34.8846 44.9231C31.316 44.9231 28.4231 42.0301 28.4231 38.4615C28.4231 34.8929 31.316 32 34.8846 32C38.4532 32 41.3462 34.8929 41.3462 38.4615Z" fill="white"/>
<path d="M56.6923 38.4615C56.6923 42.0301 53.7994 44.9231 50.2308 44.9231C46.6622 44.9231 43.7692 42.0301 43.7692 38.4615C43.7692 34.8929 46.6622 32 50.2308 32C53.7994 32 56.6923 34.8929 56.6923 38.4615Z" fill="white"/>
<path d="M39.7307 38.4616C39.7307 40.6919 37.7419 42.5 35.2884 42.5C32.835 42.5 30.8461 40.6919 30.8461 38.4616C30.8461 36.2312 32.835 34.4231 35.2884 34.4231C37.7419 34.4231 39.7307 36.2312 39.7307 38.4616Z" fill="#333333"/>
<path d="M54.2692 38.4616C54.2692 40.6919 52.4612 42.5 50.2308 42.5C48.0004 42.5 46.1923 40.6919 46.1923 38.4616C46.1923 36.2312 48.0004 34.4231 50.2308 34.4231C52.4612 34.4231 54.2692 36.2312 54.2692 38.4616Z" fill="#333333"/>
<path d="M37.3077 36.0384C37.3077 37.3767 36.2229 38.4615 34.8846 38.4615C33.5464 38.4615 32.4615 37.3767 32.4615 36.0384C32.4615 34.7002 33.5464 33.6154 34.8846 33.6154C36.2229 33.6154 37.3077 34.7002 37.3077 36.0384Z" fill="white"/>
<path d="M52.6538 36.0384C52.6538 37.3767 51.569 38.4615 50.2308 38.4615C48.8925 38.4615 47.8077 37.3767 47.8077 36.0384C47.8077 34.7002 48.8925 33.6154 50.2308 33.6154C51.569 33.6154 52.6538 34.7002 52.6538 36.0384Z" fill="white"/>
<path d="M36.5 40.8847C36.5 41.7768 35.9576 42.5001 35.2884 42.5001C34.6193 42.5001 34.0769 41.7768 34.0769 40.8847C34.0769 39.9925 34.6193 39.2693 35.2884 39.2693C35.9576 39.2693 36.5 39.9925 36.5 40.8847Z" fill="white"/>
<path d="M51.8461 40.8847C51.8461 41.7768 51.1229 42.5001 50.2307 42.5001C49.3386 42.5001 48.6154 41.7768 48.6154 40.8847C48.6154 39.9925 49.3386 39.2693 50.2307 39.2693C51.1229 39.2693 51.8461 39.9925 51.8461 40.8847Z" fill="white"/>
<path d="M46.1923 48.1539C46.1923 50.8303 44.5651 53 42.5577 53C40.5504 53 38.9231 50.8303 38.9231 48.1539C38.9231 45.4774 40.5504 43.3077 42.5577 43.3077C44.5651 43.3077 46.1923 45.4774 46.1923 48.1539Z" fill="#FF9C9C"/>
<path fill-rule="evenodd" clip-rule="evenodd" d="M26.1629 42.7313C26.5966 41.8951 27.6211 41.6397 28.3858 41.7009C28.6534 41.7224 29.0412 41.7764 29.4478 41.8916C29.5918 41.8583 29.7243 41.8438 29.8333 41.8376C30.0676 41.8243 30.2908 41.8439 30.4765 41.8706C30.6321 41.893 30.79 41.9249 30.9439 41.9621C31.182 41.9703 31.4214 41.9862 31.6373 42.0117C31.6498 42.0117 31.6625 42.0117 31.6752 42.0117C31.8791 42.0117 32.0721 42.0548 32.244 42.1316C32.3268 42.1573 32.4315 42.1954 32.541 42.2517C32.6528 42.3093 32.9167 42.4592 33.0981 42.7601C33.1136 42.7858 33.1294 42.8139 33.1446 42.8444C33.3646 42.9785 33.7079 43.2138 33.9102 43.5798C34.0319 43.7999 34.1268 44.1133 34.0482 44.4727C33.9704 44.8285 33.756 45.0769 33.5687 45.2284C33.2454 45.4901 32.8589 45.5832 32.6693 45.6228C32.2195 45.7169 31.6657 45.7346 31.2017 45.7301C30.987 45.728 30.7698 45.7207 30.5597 45.7096C30.5054 45.7154 30.4524 45.7196 30.4008 45.7223C30.1172 45.7373 29.8012 45.6803 29.5915 45.6329C29.576 45.6294 29.5602 45.6257 29.5442 45.6219C29.3849 45.6021 29.243 45.5807 29.1189 45.5568C29.0586 45.5518 29.0104 45.5467 28.9788 45.5433C28.9698 45.5424 28.9622 45.5416 28.956 45.5409C28.6551 45.5106 28.361 45.4676 28.112 45.395C27.993 45.3603 27.8046 45.2967 27.618 45.1761C27.5453 45.1292 27.4411 45.0522 27.3395 44.9418C26.9903 44.8302 26.619 44.6407 26.3457 44.313C25.9477 43.8358 25.9026 43.2331 26.1629 42.7313Z" fill="#9ACFFF"/>
<path fill-rule="evenodd" clip-rule="evenodd" d="M54.7536 41.7966C55.4021 41.6864 56.0761 41.6825 56.4045 41.7002C56.7304 41.7177 57.1046 41.7707 57.4393 41.9356C57.8093 42.1178 58.2881 42.5377 58.3071 43.2516C58.3128 43.462 58.2748 43.6493 58.2172 43.8105C58.2888 44.2283 58.1484 44.5996 57.9489 44.8483C57.7766 45.0629 57.5796 45.1687 57.4867 45.2133C57.2936 45.3061 57.1031 45.3417 57.0008 45.3584C56.821 45.3878 56.5821 45.4066 56.2778 45.4152C56.0745 45.5142 55.8649 45.5748 55.6912 45.6143C55.3063 45.7018 54.8668 45.7366 54.4765 45.7299C54.1303 45.724 53.6304 45.6843 53.2208 45.4985C53.0634 45.4271 52.9097 45.3256 52.7752 45.1916C52.4032 45.1039 52.021 44.9748 51.6318 44.7812C51.6318 44.7813 51.6221 44.7767 51.5974 44.7664C51.5684 44.7543 51.5352 44.7409 51.4895 44.7225L51.4771 44.7176C51.3936 44.684 51.2635 44.6317 51.1429 44.5738C51.0796 44.5434 50.997 44.5011 50.9117 44.4475C50.8402 44.4025 50.694 44.3052 50.5582 44.1468C50.434 44.0019 50.1399 43.589 50.2583 43.0062C50.3708 42.4525 50.7699 42.1915 50.9145 42.1095C51.3782 41.8466 51.9089 41.7763 52.3248 41.7604C52.7693 41.7434 53.2387 41.7846 53.676 41.8514C53.8068 41.8714 53.9388 41.8943 54.0704 41.9198C54.1777 41.8903 54.2934 41.8702 54.4159 41.8649C54.5334 41.837 54.6472 41.8147 54.7536 41.7966Z" fill="#9ACFFF"/>
</svg>
